<svg width="80" height="81" viewBox="0 0 80 81" fill="none" xmlns="http://www.w3.org/2000/svg">
<path d="M11.3977 41.5907H11.4337C12.6339 41.5912 13.7709 41.0528 14.5311 40.124L18.0724 35.7933V43.4333V43.452C18.0124 45.008 17.3311 52.5 10.0977 52.5C9.36135 52.5 8.76439 53.097 8.76439 53.8333C8.76439 54.5697 9.36135 55.1667 10.0977 55.1667C17.2977 55.1667 18.0071 62.6733 18.0751 64.2187V64.2333V76.5C18.0751 78.7091 19.8659 80.5 22.0751 80.5H73.4057C75.9558 80.5113 78.232 78.9029 79.0728 76.4954C79.9136 74.0879 79.1337 71.4121 77.1311 69.8333C78.5669 68.7106 79.406 66.9894 79.406 65.1667C79.406 63.344 78.5669 61.6228 77.1311 60.5C79.1337 58.9213 79.9136 56.2455 79.0728 53.838C78.232 51.4305 75.9558 49.822 73.4057 49.8333H60.7391V35.7973L64.2897 40.136C65.051 41.0597 66.186 41.594 67.3831 41.592H67.4191C68.6184 41.5855 69.7505 41.0371 70.4991 40.1L77.8324 30.9427C78.9695 29.5281 79.0116 27.5252 77.9351 26.064L66.5737 10.5627C65.0672 8.51895 63.099 6.86011 60.8297 5.72133L52.3497 1.47467C52.2337 1.41733 52.1124 1.376 51.9937 1.324H51.9804C50.7846 0.787312 49.4898 0.506637 48.1791 0.5H30.6324C29.325 0.505818 28.0332 0.783713 26.8391 1.316L26.8151 1.32667C26.6924 1.38 26.5697 1.42267 26.4484 1.48133L17.9831 5.72133C15.7127 6.86019 13.7439 8.52007 12.2377 10.5653L0.88039 26.0533C-0.198396 27.5136 -0.158432 29.5173 0.977724 30.9333L8.31106 40.0907C9.05959 41.0324 10.1947 41.5841 11.3977 41.5907ZM15.3897 53.8333C17.1762 52.7414 18.5827 51.1254 19.4177 49.2053C20.2532 51.1255 21.6602 52.7415 23.4471 53.8333C21.6602 54.9252 20.2532 56.5412 19.4177 58.4613C18.5827 56.5413 17.1762 54.9253 15.3897 53.8333ZM20.7391 76.5V73.8333H35.4737C35.4382 74.0541 35.4155 74.2767 35.4057 74.5C35.4051 75.6875 35.7588 76.8481 36.4217 77.8333H22.0724C21.336 77.8333 20.7391 77.2364 20.7391 76.5ZM76.7391 74.5C76.7391 76.341 75.2467 77.8333 73.4057 77.8333H41.4057C39.5648 77.8333 38.0724 76.341 38.0724 74.5C38.0724 72.6591 39.5648 71.1667 41.4057 71.1667H73.4057C75.2467 71.1667 76.7391 72.6591 76.7391 74.5ZM76.7391 65.1667C76.7391 67.0076 75.2467 68.5 73.4057 68.5H41.4057C39.5648 68.5 38.0724 67.0076 38.0724 65.1667C38.0724 63.3257 39.5648 61.8333 41.4057 61.8333H73.4057C75.2467 61.8333 76.7391 63.3257 76.7391 65.1667ZM76.7391 55.8333C76.7391 57.6743 75.2467 59.1667 73.4057 59.1667H41.4057C39.5648 59.1667 38.0724 57.6743 38.0724 55.8333C38.0724 53.9924 39.5648 52.5 41.4057 52.5H73.4057C75.2467 52.5 76.7391 53.9924 76.7391 55.8333ZM75.7524 29.2667L68.4191 38.428C68.1683 38.7396 67.791 38.9221 67.3911 38.9253C66.99 38.918 66.6104 38.7429 66.3444 38.4427L65.2991 37.164L74.2471 25.536L75.7884 27.6387C76.1477 28.1265 76.1329 28.7952 75.7524 29.2667ZM39.4057 12.5C45.5831 12.5 50.8644 9.08133 52.3217 4.44267L54.7311 5.64933C52.7297 11.2213 46.4724 15.1667 39.4057 15.1667C32.3391 15.1667 26.0817 11.2213 24.0804 5.64933L26.4911 4.44267C27.9471 9.08133 33.2284 12.5 39.4057 12.5ZM48.1791 3.16667C48.7439 3.16882 49.3062 3.24274 49.8524 3.38667C48.8897 7.072 44.5417 9.83333 39.4057 9.83333C34.2697 9.83333 29.9217 7.072 28.9591 3.38667C29.5053 3.24295 30.0676 3.16903 30.6324 3.16667H48.1791ZM14.3871 12.144C15.6419 10.4369 17.2831 9.05108 19.1764 8.1L21.6871 6.84267C24.1777 13.3 31.3457 17.8333 39.4057 17.8333C47.4657 17.8333 54.6337 13.3 57.1244 6.848L59.6364 8.10667C61.528 9.05556 63.1685 10.438 64.4244 12.1413L72.6057 23.3L63.5657 35.048L62.8057 34.1147C62.0937 33.2415 60.9096 32.91 59.8477 33.2866C58.7858 33.6632 58.0752 34.6666 58.0724 35.7933V49.8333H41.4057C38.8556 49.822 36.5795 51.4305 35.7387 53.838C34.8978 56.2455 35.6777 58.9213 37.6804 60.5C36.2446 61.6228 35.4055 63.344 35.4055 65.1667C35.4055 66.9894 36.2446 68.7106 37.6804 69.8333C37.195 70.2107 36.7705 70.6604 36.4217 71.1667H20.7391V64.5613C20.7391 64.54 20.7511 64.5213 20.7511 64.5C20.7511 64.1187 20.8417 55.1667 28.7391 55.1667C29.4754 55.1667 30.0724 54.5697 30.0724 53.8333C30.0724 53.097 29.4754 52.5 28.7391 52.5C20.8804 52.5 20.7524 43.5453 20.7511 43.1667C20.7511 43.1453 20.7404 43.1267 20.7391 43.1053V35.7933C20.7344 34.6697 20.026 33.6696 18.9676 33.2924C17.9092 32.9152 16.7279 33.2419 16.0137 34.1093L15.2484 35.0427L6.20572 23.3L14.3871 12.144ZM3.05906 29.2653C2.67882 28.7921 2.66622 28.1218 3.02839 27.6347L4.56706 25.536L13.5137 37.1627L12.4711 38.4373C12.2017 38.7353 11.8231 38.9114 11.4217 38.9253C11.0212 38.9233 10.6432 38.74 10.3937 38.4267L3.05906 29.2653Z" fill="#A92121"/>
<path d="M24.7396 36.5C32.5983 36.5 32.7262 45.4547 32.7276 45.8333C32.7276 46.5697 33.3245 47.1667 34.0609 47.1667C34.7973 47.1667 35.3942 46.5697 35.3942 45.8333C35.3942 45.452 35.4849 36.5 43.3809 36.5C44.1173 36.5 44.7143 35.9031 44.7143 35.1667C44.7143 34.4303 44.1173 33.8333 43.3809 33.8333C35.5223 33.8333 35.3956 24.8787 35.3942 24.5C35.3942 23.7636 34.7973 23.1667 34.0609 23.1667C33.3245 23.1667 32.7276 23.7636 32.7276 24.5C32.7276 24.8813 32.6369 33.8333 24.7396 33.8333C24.0032 33.8333 23.4062 34.4303 23.4062 35.1667C23.4062 35.9031 24.0032 36.5 24.7396 36.5ZM34.0609 30.5387C34.8959 32.4587 36.3024 34.0747 38.0889 35.1667C36.3024 36.2586 34.8959 37.8746 34.0609 39.7947C33.2254 37.8745 31.8185 36.2585 30.0316 35.1667C31.8185 34.0748 33.2254 32.4588 34.0609 30.5387Z" fill="#A92121"/>
</svg>
