<svg width="61" height="81" viewBox="0 0 61 81" fill="none" xmlns="http://www.w3.org/2000/svg">
<path d="M30.5508 12.4402C29.4566 12.2572 28.3358 12.153 27.1939 12.1345C14.8527 11.9355 4.59189 21.8572 4.39549 34.1986C4.30846 39.6656 6.17814 44.6931 9.34939 48.6277C10.1878 49.668 10.885 50.8016 11.4427 51.9973" stroke="#A92121" stroke-width="3" stroke-miterlimit="10" stroke-linecap="round" stroke-linejoin="round"/>
<path d="M25.0547 72.4992H34.6117C35.6839 72.4992 36.5531 71.63 36.5531 70.5578V66.7256C36.5531 65.6061 37.4606 64.6986 38.5802 64.6986H42.5289C46.2441 64.6986 49.2558 61.6869 49.2558 57.9717V51.8603C49.2558 51.1934 49.598 50.5733 50.1622 50.2178L55.2297 47.0245C56.5208 46.2109 56.8342 44.4644 55.9067 43.2527L49.6455 35.0727C49.3986 34.7503 49.2584 34.3583 49.2477 33.9525C49.2139 32.6928 49.0752 31.4597 48.842 30.26" stroke="#A92121" stroke-width="3" stroke-miterlimit="10" stroke-linecap="round" stroke-linejoin="round"/>
<path d="M39.6152 11.9647V14.0306" stroke="#A92121" stroke-width="3" stroke-miterlimit="10" stroke-linecap="round" stroke-linejoin="round"/>
<path d="M49.668 11.9647V14.0306" stroke="#A92121" stroke-width="3" stroke-miterlimit="10" stroke-linecap="round" stroke-linejoin="round"/>
<path d="M40.2852 20.7541C41.1766 22.23 42.7913 23.22 44.6411 23.22C46.4909 23.22 48.1056 22.23 48.9972 20.7541" stroke="#A92121" stroke-width="3" stroke-miterlimit="10" stroke-linecap="round" stroke-linejoin="round"/>
<path d="M2.69656 67.7502C4.67547 73.2017 9.10125 77.4795 14.6492 79.2503C14.9745 79.3541 15.3234 79.3541 15.6488 79.2503C23.2341 76.8294 28.7277 69.7248 28.7277 61.3366V54.1053C28.7277 53.2178 28.0083 52.4984 27.1208 52.4984H21.5769C19.5192 52.4984 17.6437 51.6814 16.2573 50.3562C15.6372 49.7634 14.6609 49.7634 14.0409 50.3562C12.6545 51.6814 10.7791 52.4984 8.72141 52.4984H3.17719C2.28969 52.4984 1.57031 53.2178 1.57031 54.1053V61.3366C1.57031 61.6897 1.58359 62.0397 1.60281 62.388" stroke="#A92121" stroke-width="3" stroke-miterlimit="10" stroke-linecap="round" stroke-linejoin="round"/>
<path d="M22.0695 61.322H18.4057C18.179 61.322 17.9952 61.1383 17.9952 60.9116V57.2478C17.9952 57.0211 17.8115 56.8373 17.5848 56.8373H12.7135C12.4868 56.8373 12.303 57.0211 12.303 57.2478V60.9116C12.303 61.1383 12.1193 61.322 11.8926 61.322H8.22883C8.00211 61.322 7.81836 61.5058 7.81836 61.7325V66.6037C7.81836 66.8305 8.00211 67.0142 8.22883 67.0142H11.8926C12.1193 67.0142 12.303 67.198 12.303 67.4247V71.0884C12.303 71.3152 12.4868 71.4989 12.7135 71.4989H17.5848C17.8115 71.4989 17.9952 71.3152 17.9952 71.0884V67.4247C17.9952 67.198 18.179 67.0142 18.4057 67.0142H22.0695C22.2962 67.0142 22.4799 66.8305 22.4799 66.6037V61.7325C22.4799 61.5058 22.2962 61.322 22.0695 61.322Z" stroke="#A92121" stroke-width="3" stroke-miterlimit="10" stroke-linecap="round" stroke-linejoin="round"/>
<path d="M27.4266 30.4038L26.8237 31.0067L26.2207 30.4038C24.7404 28.9234 22.3405 28.9234 20.8602 30.4038C19.3799 31.8841 19.3799 34.2839 20.8602 35.7642L26.5491 41.4531C26.7007 41.6047 26.9466 41.6047 27.0982 41.4531L32.7871 35.7642C34.2674 34.2839 34.2674 31.8841 32.7871 30.4038C31.3068 28.9236 28.907 28.9236 27.4266 30.4038Z" stroke="#A92121" stroke-width="3" stroke-miterlimit="10" stroke-linecap="round" stroke-linejoin="round"/>
<path d="M14.0195 37.4442C15.3329 43.3073 20.5654 47.6902 26.8249 47.6902C34.0745 47.6902 39.9513 41.8133 39.9513 34.5637C39.9513 27.3142 34.0743 21.4375 26.8249 21.4375C20.4616 21.4375 15.1571 25.9658 13.9551 31.9755" stroke="#A92121" stroke-width="3" stroke-miterlimit="10" stroke-linecap="round" stroke-linejoin="round"/>
<path d="M39.0404 29.7603C40.7657 30.4778 42.6577 30.8747 44.6429 30.8747C52.707 30.8747 59.2443 24.3375 59.2443 16.2733C59.2443 8.20906 52.7071 1.67188 44.6429 1.67188C41.7326 1.67188 39.0213 2.52359 36.7441 3.99109" stroke="#A92121" stroke-width="3" stroke-miterlimit="10" stroke-linecap="round" stroke-linejoin="round"/>
<path d="M32.779 7.76031C31.0562 10.1569 30.041 13.0964 30.041 16.2733C30.041 18.3923 30.493 20.4056 31.3049 22.2228" stroke="#A92121" stroke-width="3" stroke-miterlimit="10" stroke-linecap="round" stroke-linejoin="round"/>
</svg>
