<svg width="81" height="72" viewBox="0 0 81 72" fill="none" xmlns="http://www.w3.org/2000/svg">
<path d="M63.1728 43.5484V41.0017C63.1728 38.9997 61.5498 37.3767 59.5478 37.3767H54.3992C53.277 37.3767 52.2742 37.8867 51.6094 38.6873" stroke="#A92121" stroke-width="3" stroke-miterlimit="10" stroke-linecap="round" stroke-linejoin="round"/>
<path d="M52.4443 42.5531V41.0017C52.4443 38.9997 50.8213 37.3767 48.8193 37.3767H42.0449" stroke="#A92121" stroke-width="3" stroke-miterlimit="10" stroke-linecap="round" stroke-linejoin="round"/>
<path d="M34.9445 39.9388L32.0845 37.0788C31.7 36.6941 31.0764 36.6941 30.6917 37.0788L21.7852 45.9853" stroke="#A92121" stroke-width="3" stroke-miterlimit="10" stroke-linecap="round" stroke-linejoin="round"/>
<path d="M32.3245 47.7995C33.6643 47 35.1866 46.2637 36.8559 45.6098L42.8699 39.5958C43.2546 39.2111 43.2546 38.5875 42.8699 38.203L40.4712 35.8042C40.0865 35.4195 39.463 35.4195 39.0784 35.8042L26.541 48.3416C28.4388 49.0369 30.5645 48.8497 32.3245 47.7995Z" stroke="#A92121" stroke-width="3" stroke-miterlimit="10" stroke-linecap="round" stroke-linejoin="round"/>
<path d="M59.5592 42.8822L56.207 52.8856" stroke="#A92121" stroke-width="3" stroke-miterlimit="10" stroke-linecap="round" stroke-linejoin="round"/>
<path d="M15.798 48.852L18.317 49.4678L20.0491 52.8856H73.0484C73.1719 52.3105 73.2069 51.7317 73.1417 51.1531C72.4616 45.1042 61.3794 41.3848 48.3892 42.8458C42.0042 43.5639 36.3467 45.3998 32.3248 47.7995C30.3353 48.9866 27.878 49.0733 25.8114 48.0259L21.3187 45.7491L18.7828 35.6909C18.7128 35.4133 18.4631 35.2188 18.1767 35.2188H15.7552C15.41 35.2188 15.1302 35.4986 15.1302 35.8438V38.5962C15.1302 38.9414 14.8503 39.2212 14.5052 39.2212H11.7525C11.4073 39.2212 11.1275 39.5011 11.1275 39.8462V42.5987C11.1275 42.9439 10.8477 43.2237 10.5025 43.2237H7.75C7.40484 43.2237 7.125 43.5036 7.125 43.8487V46.2413C7.125 46.5292 7.32187 46.78 7.60156 46.8484L10.485 47.5533" stroke="#A92121" stroke-width="3" stroke-miterlimit="10" stroke-linecap="round" stroke-linejoin="round"/>
<path d="M62.2613 52.8856H65.5385C65.9726 52.4605 66.2432 51.8694 66.2432 51.2139C66.2432 49.9197 65.194 48.8706 63.8999 48.8706C62.6059 48.8706 61.5566 49.9199 61.5566 51.2139C61.5566 51.8695 61.8273 52.4605 62.2613 52.8856Z" stroke="#A92121" stroke-width="3" stroke-miterlimit="10" stroke-linecap="round" stroke-linejoin="round"/>
<path d="M54.7813 70.2486H61.8894C71.1673 70.2486 78.8062 62.8737 79.2335 53.6969C79.2541 53.2542 78.8952 52.8856 78.4521 52.8856H2.36038C1.91725 52.8856 1.55835 53.2542 1.57897 53.6969C2.00632 62.8737 9.64538 70.2486 18.923 70.2486H49.3126" stroke="#A92121" stroke-width="3" stroke-miterlimit="10" stroke-linecap="round" stroke-linejoin="round"/>
<path d="M31.354 29.5956V26.3327C31.354 24.2903 29.6984 22.6345 27.6559 22.6345H21.1443C17.8124 22.6345 15.1113 19.9334 15.1113 16.6016C15.1113 13.2697 17.8124 10.5686 21.1443 10.5686H31.0316" stroke="#A92121" stroke-width="3" stroke-miterlimit="10" stroke-linecap="round" stroke-linejoin="round"/>
<path d="M36.5 10.5688H57.8056C60.2405 10.5688 62.2144 8.59485 62.2144 6.16C62.2144 3.72516 60.2405 1.75125 57.8056 1.75125H48.9883" stroke="#A92121" stroke-width="3" stroke-miterlimit="10" stroke-linecap="round" stroke-linejoin="round"/>
<path d="M40.3379 26.1628H55.5149C57.6104 26.1628 59.3091 24.4641 59.3091 22.3686C59.3091 20.2731 57.6104 18.5744 55.5149 18.5744H50.2752" stroke="#A92121" stroke-width="3" stroke-miterlimit="10" stroke-linecap="round" stroke-linejoin="round"/>
<path d="M7.90625 58.1875H11.1711" stroke="#A92121" stroke-width="3" stroke-miterlimit="10" stroke-linecap="round" stroke-linejoin="round"/>
<path d="M15.623 58.1875H18.8879" stroke="#A92121" stroke-width="3" stroke-miterlimit="10" stroke-linecap="round" stroke-linejoin="round"/>
<path d="M23.3398 58.1875H26.6047" stroke="#A92121" stroke-width="3" stroke-miterlimit="10" stroke-linecap="round" stroke-linejoin="round"/>
<path d="M31.0566 58.1875H34.3215" stroke="#A92121" stroke-width="3" stroke-miterlimit="10" stroke-linecap="round" stroke-linejoin="round"/>
<path d="M38.7734 58.1875H42.0383" stroke="#A92121" stroke-width="3" stroke-miterlimit="10" stroke-linecap="round" stroke-linejoin="round"/>
<path d="M46.4902 58.1875H49.7551" stroke="#A92121" stroke-width="3" stroke-miterlimit="10" stroke-linecap="round" stroke-linejoin="round"/>
<path d="M54.207 58.1875H57.4719" stroke="#A92121" stroke-width="3" stroke-miterlimit="10" stroke-linecap="round" stroke-linejoin="round"/>
<path d="M61.9238 58.1875H65.1887" stroke="#A92121" stroke-width="3" stroke-miterlimit="10" stroke-linecap="round" stroke-linejoin="round"/>
<path d="M69.6406 58.1875H72.9055" stroke="#A92121" stroke-width="3" stroke-miterlimit="10" stroke-linecap="round" stroke-linejoin="round"/>
<path d="M48.0625 46.7812H48.5312" stroke="#A92121" stroke-width="3" stroke-miterlimit="10" stroke-linecap="round" stroke-linejoin="round"/>
<path d="M52.9062 46.1562H53.375" stroke="#A92121" stroke-width="3" stroke-miterlimit="10" stroke-linecap="round" stroke-linejoin="round"/>
<path d="M45.5625 50.6875H46.0312" stroke="#A92121" stroke-width="3" stroke-miterlimit="10" stroke-linecap="round" stroke-linejoin="round"/>
<path d="M50.4062 50.0625H50.875" stroke="#A92121" stroke-width="3" stroke-miterlimit="10" stroke-linecap="round" stroke-linejoin="round"/>
</svg>
