<svg width="81" height="80" viewBox="0 0 81 80" fill="none" xmlns="http://www.w3.org/2000/svg">
<path d="M78.79 60.9912L64.3613 46.5625L65.4062 45.5175L65.7725 45.8838C66.0163 46.1275 66.3363 46.25 66.6562 46.25C66.9762 46.25 67.2962 46.1275 67.54 45.8838L71.29 42.1338C71.7787 41.645 71.7787 40.855 71.29 40.3662L64.1562 33.2325V10C64.1562 5.175 60.23 1.25 55.4062 1.25H7.90625C4.46 1.25 1.65625 4.05375 1.65625 7.5V17.5C1.65625 18.19 2.215 18.75 2.90625 18.75H11.6562V72.5C11.6562 75.9463 14.46 78.75 17.9062 78.75H62.9062C66.3525 78.75 69.1562 75.9463 69.1562 72.5V70C69.1562 69.31 68.5975 68.75 67.9062 68.75H64.1562V56.1425L73.8975 65.8838C74.1413 66.1275 74.4613 66.25 74.7812 66.25C75.1012 66.25 75.4212 66.1275 75.665 65.8838L78.79 62.7588C79.2787 62.27 79.2787 61.48 78.79 60.9912ZM56.6562 50.7325L52.1738 46.25L59.1562 39.2675L63.6387 43.75L56.6562 50.7325ZM56.1387 53.75L54.1562 55.7325L47.1738 48.75L49.1562 46.7675L56.1387 53.75ZM66.6562 43.2325L59.6738 36.25L61.6562 34.2675L68.6387 41.25L66.6562 43.2325ZM11.6562 16.25H4.15625V7.5C4.15625 5.4325 5.83875 3.75 7.90625 3.75C9.97375 3.75 11.6562 5.4325 11.6562 7.5V16.25ZM66.6562 72.5C66.6562 74.5675 64.9738 76.25 62.9062 76.25H22.9037C23.69 75.205 24.1562 73.9062 24.1562 72.5V71.25H66.6562V72.5ZM61.6562 68.75H22.9062C22.215 68.75 21.6562 69.31 21.6562 70V72.5C21.6562 74.5675 19.9737 76.25 17.9062 76.25C15.8387 76.25 14.1562 74.5675 14.1562 72.5V7.5C14.1562 6.0875 13.6675 4.7975 12.8737 3.75H55.4062C58.8525 3.75 61.6562 6.55375 61.6562 10V31.25C61.3363 31.25 61.0163 31.3725 60.7725 31.6162L57.0225 35.3662C56.5337 35.855 56.5337 36.645 57.0225 37.1338L57.3887 37.5L50.4062 44.4825L50.04 44.1162C49.5513 43.6275 48.7612 43.6275 48.2725 44.1162L44.5225 47.8662C44.0337 48.355 44.0337 49.145 44.5225 49.6338L53.2725 58.3838C53.5163 58.6275 53.8363 58.75 54.1562 58.75C54.4762 58.75 54.7962 58.6275 55.04 58.3838L58.79 54.6338C59.2788 54.145 59.2788 53.355 58.79 52.8662L58.4238 52.5L59.4688 51.455L61.6562 53.6425V68.75ZM74.7812 63.2325L61.2363 49.6875L62.5938 48.33L76.1387 61.875L74.7812 63.2325Z" fill="#A92121"/>
<path d="M17.9062 23.75H59.1562V26.25H17.9062V23.75Z" fill="#A92121"/>
<path d="M17.9062 33.75H54.1562V36.25H17.9062V33.75Z" fill="#A92121"/>
<path d="M17.9062 28.75H59.1562V31.25H17.9062V28.75Z" fill="#A92121"/>
<path d="M17.9062 13.75H59.1562V16.25H17.9062V13.75Z" fill="#A92121"/>
<path d="M17.9062 8.75H59.1562V11.25H17.9062V8.75Z" fill="#A92121"/>
<path d="M17.9062 18.75H59.1562V21.25H17.9062V18.75Z" fill="#A92121"/>
<path d="M17.9062 38.75H51.6562V41.25H17.9062V38.75Z" fill="#A92121"/>
<path d="M27.9062 43.75C21.7025 43.75 16.6562 48.7975 16.6562 55C16.6562 61.2025 21.7025 66.25 27.9062 66.25C34.11 66.25 39.1562 61.2025 39.1562 55C39.1562 48.7975 34.11 43.75 27.9062 43.75ZM27.9062 63.75C23.0825 63.75 19.1562 59.825 19.1562 55C19.1562 50.175 23.0825 46.25 27.9062 46.25C32.73 46.25 36.6562 50.175 36.6562 55C36.6562 59.825 32.73 63.75 27.9062 63.75Z" fill="#A92121"/>
<path d="M27.9062 48.75C24.46 48.75 21.6562 51.5538 21.6562 55C21.6562 58.4462 24.46 61.25 27.9062 61.25C31.3525 61.25 34.1562 58.4462 34.1562 55C34.1562 51.5538 31.3525 48.75 27.9062 48.75ZM27.9062 58.75C25.8387 58.75 24.1562 57.0675 24.1562 55C24.1562 52.9325 25.8387 51.25 27.9062 51.25C29.9738 51.25 31.6562 52.9325 31.6562 55C31.6562 57.0675 29.9738 58.75 27.9062 58.75Z" fill="#A92121"/>
<path d="M49.1562 61.25C49.1562 60.7 48.7963 60.2125 48.2688 60.0538C47.7438 59.8938 47.1712 60.0975 46.8662 60.5563L46.4463 61.1863C45.3763 62.7913 43.585 63.75 41.6562 63.75V66.25C43.8375 66.25 45.8962 65.395 47.4212 63.9063C48.3062 65.3125 49.8737 66.25 51.6562 66.25H56.6562V63.75H51.6562C50.2775 63.75 49.1562 62.6288 49.1562 61.25Z" fill="#A92121"/>
</svg>
