<svg width="37" height="36" viewBox="0 0 37 36" fill="none" xmlns="http://www.w3.org/2000/svg">
<g clip-path="url(#clip0_269_603)">
<mask id="mask0_269_603" style="mask-type:luminance" maskUnits="userSpaceOnUse" x="0" y="0" width="37" height="36">
<path d="M36.8105 18C36.8105 8.05887 28.7517 0 18.8105 0C8.86942 0 0.810547 8.05887 0.810547 18C0.810547 27.9411 8.86942 36 18.8105 36C28.7517 36 36.8105 27.9411 36.8105 18Z" fill="white"/>
</mask>
<g mask="url(#mask0_269_603)">
<path d="M36.8105 0H0.810547V36H36.8105V0Z" fill="#38C8D9"/>
<path d="M36.8105 18C46.7517 18 54.8105 9.94113 54.8105 9.53674e-06C54.8105 -9.94113 46.7517 -18 36.8105 -18C26.8694 -18 18.8105 -9.94113 18.8105 9.53674e-06C18.8105 9.94113 26.8694 18 36.8105 18Z" fill="#9BF4FF"/>
<path d="M23.0486 17.1781H12.4129V12.9695H23.0486C23.6698 12.9695 24.1018 13.0778 24.3186 13.2668C24.5354 13.456 24.6696 13.8067 24.6696 14.319V15.8302C24.6696 16.37 24.5354 16.7207 24.3186 16.9099C24.1018 17.0989 23.6698 17.1798 23.0486 17.1798V17.1781ZM23.7782 9.00161H7.90234V27H12.4129V21.1444H20.7254L24.6696 27H29.7205L25.3718 21.1169C26.9751 20.8793 27.695 20.388 28.2887 19.5782C28.8824 18.7685 29.1803 17.4739 29.1803 15.7462V14.3966C29.1803 13.3719 29.0717 12.5622 28.8824 11.9416C28.6932 11.3209 28.3697 10.7811 27.9102 10.2962C27.4248 9.83722 26.8845 9.51395 26.2357 9.29738C25.5869 9.1083 24.7764 9 23.7782 9V9.00161Z" fill="white"/>
</g>
</g>
<defs>
<clipPath id="clip0_269_603">
<rect width="36" height="36" fill="white" transform="translate(0.810547)"/>
</clipPath>
</defs>
</svg>
