<svg width="37" height="36" viewBox="0 0 37 36" fill="none" xmlns="http://www.w3.org/2000/svg">
<g clip-path="url(#clip0_269_596)">
<rect x="0.810547" width="36" height="36" rx="18" fill="white"/>
<path fill-rule="evenodd" clip-rule="evenodd" d="M37 18C37 27.9934 28.8987 36.0947 18.9053 36.0947C8.91183 36.0947 0.810547 27.9934 0.810547 18C0.810547 8.00656 8.91183 -0.0947266 18.9053 -0.0947266C28.8987 -0.0947266 37 8.00656 37 18ZM25.9703 9.95276C26.8034 9.58698 27.6942 10.3265 27.5493 11.2635L25.4034 25.1261C25.273 25.9688 24.3759 26.4081 23.6785 25.9708L17.4611 22.0719C16.813 21.6656 16.7061 20.7244 17.2448 20.169L22.7981 14.4435C22.9969 14.2387 22.7433 13.9079 22.5106 14.0686L14.7959 19.3986C14.2255 19.7925 13.5184 19.9001 12.8652 19.6922L9.44344 18.6024C8.82382 18.4052 8.78012 17.5002 9.37754 17.2379L25.9703 9.95276Z" fill="#38C8D9"/>
</g>
<defs>
<clipPath id="clip0_269_596">
<rect x="0.810547" width="36" height="36" rx="18" fill="white"/>
</clipPath>
</defs>
</svg>
