<svg width="36" height="36" viewBox="0 0 36 36" fill="none" xmlns="http://www.w3.org/2000/svg">
<g clip-path="url(#clip0_269_600)">
<rect x="0.810547" y="0.5" width="35" height="35" rx="17.5" fill="white"/>
<path d="M18.3105 0.5C8.64589 0.5 0.810547 8.33499 0.810547 18C0.810547 27.665 8.64589 35.5 18.3105 35.5C27.9752 35.5 35.8105 27.665 35.8105 18C35.8105 8.33499 27.9752 0.5 18.3105 0.5ZM27.1875 19.8927C28.0031 20.6894 28.866 21.4391 29.5983 22.3182C29.9227 22.707 30.2284 23.1091 30.4612 23.5613C30.7935 24.2062 30.4934 24.9134 29.9162 24.9517L26.331 24.9509C25.4051 25.0276 24.6682 24.6541 24.047 24.0211C23.5511 23.5166 23.091 22.9777 22.6133 22.456C22.4182 22.2419 22.2126 22.0403 21.9677 21.8817C21.479 21.5637 21.0543 21.6611 20.7743 22.1717C20.489 22.6913 20.4238 23.267 20.3966 23.8453C20.3576 24.6906 20.1026 24.9116 19.2544 24.9513C17.4419 25.0362 15.7222 24.7612 14.1238 23.8474C12.7138 23.0414 11.6224 21.9039 10.6714 20.616C8.81955 18.1053 7.40129 15.3497 6.12697 12.5149C5.84016 11.8765 6.04998 11.5349 6.75428 11.5217C7.92441 11.4991 9.09454 11.502 10.2647 11.5206C10.7409 11.5281 11.056 11.8006 11.2389 12.25C11.8713 13.8057 12.6465 15.2859 13.6179 16.6587C13.8767 17.0243 14.141 17.3888 14.5173 17.647C14.9326 17.932 15.2492 17.8378 15.445 17.3741C15.5703 17.0794 15.6244 16.7643 15.6516 16.4485C15.7447 15.3669 15.7558 14.2855 15.5947 13.2081C15.4944 12.5339 15.1153 12.0985 14.4432 11.971C14.1009 11.9062 14.151 11.7795 14.3175 11.584C14.6065 11.246 14.8771 11.0369 15.4182 11.0369L19.4689 11.0362C20.1073 11.1615 20.2505 11.4479 20.3371 12.091L20.3407 16.5925C20.3332 16.8413 20.4657 17.5789 20.9125 17.7418C21.2706 17.86 21.5069 17.5728 21.721 17.3462C22.6924 16.3153 23.3846 15.0987 24.0044 13.8394C24.2779 13.284 24.5139 12.7094 24.743 12.1336C24.9135 11.7079 25.1784 11.4984 25.6589 11.5056L29.5596 11.5102C29.6745 11.5102 29.7913 11.5113 29.9051 11.531C30.5625 11.6434 30.7426 11.9263 30.5392 12.5676C30.2191 13.5751 29.5972 14.4144 28.9892 15.2559C28.3376 16.1567 27.6426 17.0261 26.9974 17.9309C26.4044 18.758 26.4513 19.1744 27.1875 19.8927Z" fill="#38C8D9"/>
</g>
<defs>
<clipPath id="clip0_269_600">
<rect x="0.810547" y="0.5" width="35" height="35" rx="17.5" fill="white"/>
</clipPath>
</defs>
</svg>
