<svg width="269" height="32" viewBox="0 0 269 32" fill="none" xmlns="http://www.w3.org/2000/svg">
<g clip-path="url(#clip0_48_42)">
<path fill-rule="evenodd" clip-rule="evenodd" d="M24.1195 3.5V3.51092C24.1086 3.51092 20.6821 3.5 19.7684 6.78603C18.9308 9.79913 16.5704 18.1179 16.5051 18.3472H15.8525C15.8525 18.3472 13.4376 9.84279 12.5892 6.77511C11.6755 3.48908 8.23814 3.5 8.23814 3.5H0.40625V28.5H8.23814V13.6528H8.56447H8.8908L13.4594 28.5H18.8982L23.4668 13.6638H24.1195V28.5H31.9514V3.5H24.1195Z" fill="#4DB45E"/>
<path fill-rule="evenodd" clip-rule="evenodd" d="M52.7284 3.5C52.7284 3.5 50.4332 3.70742 49.3564 6.12009L43.8088 18.3472H43.1561V3.5H35.3242V28.5H42.721C42.721 28.5 45.125 28.2817 46.2018 25.8799L51.6407 13.6528H52.2933V28.5H60.1252V3.5H52.7284Z" fill="#4DB45E"/>
<path fill-rule="evenodd" clip-rule="evenodd" d="M63.6055 14.8535V28.4998H71.4374V20.5304H79.9219C83.6203 20.5304 86.7531 18.1614 87.917 14.8535H63.6055Z" fill="#4DB45E"/>
<path fill-rule="evenodd" clip-rule="evenodd" d="M79.9209 3.5H62.5059C63.3761 8.25983 66.9331 12.0808 71.5343 13.3253C72.5785 13.6092 73.6772 13.762 74.8085 13.762H88.2314C88.3511 13.1943 88.4055 12.6157 88.4055 12.0153C88.4055 7.31004 84.6092 3.5 79.9209 3.5Z" fill="url(#paint0_linear_48_42)"/>
</g>
<g clip-path="url(#clip1_48_42)">
<path d="M146.636 28.0346H139.527L143.973 3.89551H151.081L146.636 28.0346Z" fill="#15195A"/>
<path d="M172.403 4.48577C171.001 3.99732 168.777 3.45801 166.028 3.45801C159.008 3.45801 154.065 6.7449 154.034 11.444C153.976 14.9111 157.573 16.8368 160.264 17.9928C163.014 19.1742 163.949 19.9452 163.949 20.9982C163.921 22.6154 161.727 23.3608 159.68 23.3608C156.842 23.3608 155.322 22.9765 153.011 22.0768L152.075 21.6911L151.08 27.1097C152.747 27.7766 155.819 28.3685 159.008 28.3946C166.466 28.3946 171.322 25.1585 171.38 20.1508C171.408 17.4028 169.508 15.2971 165.413 13.5766C162.927 12.4721 161.404 11.7273 161.404 10.5973C161.433 9.5699 162.692 8.51766 165.499 8.51766C167.809 8.46611 169.507 8.95387 170.793 9.44197L171.436 9.69835L172.403 4.48577Z" fill="#15195A"/>
<path fill-rule="evenodd" clip-rule="evenodd" d="M185.127 3.89551H190.625L196.36 28.0343H189.778C189.778 28.0343 189.134 25.2609 188.93 24.4133H179.804C179.54 25.055 178.312 28.0343 178.312 28.0343H170.854L181.412 5.89827C182.143 4.33171 183.432 3.89551 185.127 3.89551ZM184.689 12.7291C184.689 12.7291 182.437 18.0962 181.851 19.4829H187.76C187.467 18.2762 186.121 12.4979 186.121 12.4979L185.624 10.4181C185.415 10.9536 185.113 11.69 184.909 12.1867C184.77 12.5233 184.677 12.7498 184.689 12.7291Z" fill="#15195A"/>
<path fill-rule="evenodd" clip-rule="evenodd" d="M108.728 3.89551H120.165C121.715 3.94637 122.973 4.38292 123.382 5.92465L125.868 17.0157L125.868 17.0177L126.629 20.356L133.59 3.89551H141.107L129.934 28.0091H122.417L116.081 7.0343C113.895 5.91206 111.401 5.00947 108.611 4.38327L108.728 3.89551Z" fill="#15195A"/>
</g>
<path d="M249.436 28.2746H235.375V3.38428H249.436V28.2746Z" fill="#FF5F00"/>
<path d="M236.268 15.8297C236.268 10.7806 238.668 6.28294 242.406 3.38454C239.673 1.26505 236.223 0 232.475 0C223.6 0 216.406 7.08714 216.406 15.8297C216.406 24.5723 223.6 31.6595 232.475 31.6595C236.223 31.6595 239.673 30.3944 242.406 28.2749C238.668 25.3765 236.268 20.8789 236.268 15.8297Z" fill="#EB001B"/>
<path d="M268.407 15.8297C268.407 24.5723 261.213 31.6595 252.338 31.6595C248.59 31.6595 245.14 30.3944 242.406 28.2749C246.145 25.3765 248.545 20.8789 248.545 15.8297C248.545 10.7806 246.145 6.28294 242.406 3.38454C245.14 1.26505 248.59 0 252.338 0C261.213 0 268.407 7.08714 268.407 15.8297Z" fill="#F79E1B"/>
<defs>
<linearGradient id="paint0_linear_48_42" x1="62.508" y1="8.631" x2="88.4055" y2="8.631" gradientUnits="userSpaceOnUse">
<stop offset="0.3" stop-color="#00B4E6"/>
<stop offset="1" stop-color="#088CCB"/>
</linearGradient>
<clipPath id="clip0_48_42">
<rect width="88" height="25" fill="white" transform="translate(0.40625 3.5)"/>
</clipPath>
<clipPath id="clip1_48_42">
<rect width="88" height="25" fill="white" transform="translate(108.406 3.5)"/>
</clipPath>
</defs>
</svg>
