<svg width="13" height="22" viewBox="0 0 13 22" fill="none" xmlns="http://www.w3.org/2000/svg">
<path fill-rule="evenodd" clip-rule="evenodd" d="M6.40612 16.1722C5.54912 16.1722 4.85439 15.4775 4.85439 14.6205V11.5171C4.85439 10.6601 5.54912 9.96535 6.40612 9.96535C8.1201 9.96535 9.50956 8.57589 9.50956 6.8619C9.50956 5.14792 8.1201 3.75846 6.40612 3.75846C4.69213 3.75846 3.30267 5.14792 3.30267 6.8619C3.30267 7.7189 2.60794 8.41363 1.75094 8.41363C0.893949 8.41363 0.199219 7.7189 0.199219 6.8619C0.199501 3.63643 2.67025 0.948688 5.88431 0.677525C9.09837 0.406362 11.9845 2.64215 12.5252 5.82199C13.0659 9.00183 11.0809 12.0659 7.95784 12.8722V14.6205C7.95784 15.4775 7.26311 16.1722 6.40612 16.1722Z" fill="white"/>
<path d="M6.40524 21.3447C7.26223 21.3447 7.95696 20.6499 7.95696 19.7929C7.95696 18.9359 7.26223 18.2412 6.40524 18.2412C5.54825 18.2412 4.85352 18.9359 4.85352 19.7929C4.85352 20.6499 5.54825 21.3447 6.40524 21.3447Z" fill="white"/>
</svg>
