<svg width="181" height="28" viewBox="0 0 181 28" fill="none" xmlns="http://www.w3.org/2000/svg">
<path d="M80.9053 8.50039L84.7053 5.70039H72.1053V22.3004H84.7053V19.5004H75.7053V15.3004H83.3053V12.5004H75.7053V8.50039H80.9053ZM65.2053 8.50039L69.0053 5.70039H54.6053V22.3004H62.1053C66.3053 22.3004 68.7053 20.4004 68.7053 17.1004C68.7053 13.9004 66.5053 12.2004 62.5053 12.2004H58.1053V8.50039H65.2053ZM62.0053 14.9004C64.3053 14.9004 65.3053 15.7004 65.3053 17.2004C65.3053 18.7004 64.2053 19.5004 62.0053 19.5004H58.2053V14.9004H62.0053ZM94.8053 5.70039H88.0053V22.3004H91.6053V17.6004H94.9053C99.3053 17.6004 102.005 15.3004 102.005 11.6004C102.005 7.90039 99.2053 5.70039 94.8053 5.70039ZM94.8053 14.8004H91.6053V8.40039H94.8053C97.1053 8.40039 98.4053 9.50039 98.4053 11.6004C98.3053 13.7004 97.1053 14.8004 94.8053 14.8004ZM48.5053 18.7004C47.5053 19.2004 46.5053 19.5004 45.4053 19.5004C42.2053 19.5004 39.8053 17.2004 39.8053 14.0004C39.8053 10.8004 42.1053 8.50039 45.4053 8.50039C46.6053 8.50039 47.7053 8.90039 48.7053 9.50039L51.3053 7.60039L51.1053 7.40039C49.6053 6.10039 47.6053 5.40039 45.3053 5.40039C42.8053 5.40039 40.6053 6.20039 38.9053 7.80039C37.3053 9.40039 36.3053 11.6004 36.4053 13.9004C36.4053 16.2004 37.3053 18.4004 38.9053 20.1004C40.6053 21.7004 42.9053 22.6004 45.2053 22.5004C47.8053 22.5004 50.0053 21.6004 51.6053 20.0004L49.3053 18.3004L48.5053 18.7004ZM156.405 12.5004H148.705V5.70039H145.105V22.3004H148.705V15.5004H156.405V22.3004H160.005V5.70039H156.405V12.5004ZM132.105 5.70039L124.905 22.3004H128.505L129.905 19.0004H137.505L138.905 22.3004H142.705L135.705 5.70039H132.105ZM131.105 16.2004L133.905 9.50039L136.505 16.2004H131.105ZM173.005 13.7004L179.505 5.70039H175.405L170.005 12.8004H168.005V5.70039H164.405V22.3004H168.005V15.6004H170.305L175.805 22.3004H180.405L173.005 13.7004ZM117.405 12.2004H113.005V8.50039H122.405V5.70039H109.405V22.3004H116.905C121.105 22.3004 123.505 20.4004 123.505 17.1004C123.605 13.9004 121.405 12.2004 117.405 12.2004ZM116.805 19.6004H113.005V15.0004H116.805C119.105 15.0004 120.105 15.8004 120.105 17.3004C120.205 18.8004 119.005 19.6004 116.805 19.6004Z" fill="#21A038"/>
<path d="M24.887 5.38135C25.5362 6.23198 26.0858 7.15611 26.5247 8.1352L14.0758 17.4355L8.87305 14.1302V10.1538L14.0758 13.4591L24.887 5.38135Z" fill="#21A038"/>
<path d="M3.56354 13.8496C3.56354 13.6712 3.56784 13.4939 3.57642 13.3177L0.423422 13.1611C0.41269 13.3895 0.406254 13.6201 0.406254 13.8528C0.404912 15.6712 0.757824 17.4719 1.44475 19.1516C2.13168 20.8314 3.13909 22.3572 4.40921 23.6414L6.64571 21.3759C5.66802 20.3891 4.89242 19.2161 4.36347 17.9245C3.83453 16.6329 3.56268 15.248 3.56354 13.8496Z" fill="url(#paint0_linear_48_96)"/>
<path d="M14.0742 3.19908C14.2501 3.19908 14.425 3.20561 14.5989 3.21431L14.7566 0.0177888C14.5306 0.00691256 14.3031 0.00147512 14.0742 0.00147512C12.2791 -0.000743365 10.5014 0.356402 8.84296 1.0524C7.18453 1.7484 5.6781 2.76956 4.41016 4.05722L6.64666 6.32382C7.62045 5.33265 8.77796 4.54632 10.0526 4.01007C11.3273 3.47381 12.694 3.1982 14.0742 3.19908Z" fill="url(#paint1_linear_48_96)"/>
<path d="M14.0742 24.5011C13.8982 24.5011 13.7233 24.5011 13.5484 24.4869L13.3906 27.6823C13.6174 27.6939 13.8453 27.6998 14.0742 27.6998C15.8685 27.7016 17.6454 27.3443 19.3029 26.6481C20.9605 25.9519 22.4659 24.9306 23.7329 23.6429L21.5007 21.3774C20.5267 22.3681 19.3693 23.154 18.0949 23.69C16.8205 24.2261 15.4541 24.5017 14.0742 24.5011Z" fill="url(#paint2_linear_48_96)"/>
<path d="M19.9986 5.05746L22.6558 3.07255C20.2271 1.07944 17.1955 -0.00553265 14.0703 2.12167e-05V3.19871C16.1865 3.19605 18.2536 3.84418 19.9986 5.05746Z" fill="url(#paint3_linear_48_96)"/>
<path d="M27.7394 13.8501C27.7411 13.018 27.6693 12.1873 27.5247 11.3682L24.5832 13.5652C24.5832 13.6598 24.5832 13.7544 24.5832 13.8501C24.584 15.3383 24.2761 16.81 23.6798 18.1699C23.0833 19.5298 22.2116 20.7475 21.1211 21.7441L23.2428 24.1206C24.6605 22.8234 25.7934 21.2389 26.568 19.4697C27.3427 17.7003 27.7418 15.7858 27.7394 13.8501Z" fill="#21A038"/>
<path d="M14.0735 24.5014C12.605 24.5019 11.1527 24.1898 9.8107 23.5854C8.46876 22.981 7.267 22.0976 6.28327 20.9927L3.93945 23.1418C5.21917 24.5788 6.78263 25.7272 8.52845 26.5125C10.2743 27.2977 12.1634 27.7023 14.0735 27.7V24.5014Z" fill="url(#paint4_linear_48_96)"/>
<path d="M7.02563 5.95555L4.90502 3.5791C3.48689 4.87595 2.35357 6.46041 1.57855 8.22972C0.803535 9.99902 0.404137 11.9137 0.406258 13.8495H3.56355C3.5629 12.3614 3.87076 10.8897 4.46715 9.52978C5.06355 8.16995 5.9352 6.95222 7.02563 5.95555Z" fill="url(#paint5_linear_48_96)"/>
<defs>
<linearGradient id="paint0_linear_48_96" x1="5.04775" y1="23.2423" x2="1.51532" y2="13.1664" gradientUnits="userSpaceOnUse">
<stop offset="0.14" stop-color="#F1E813"/>
<stop offset="0.3" stop-color="#E6E418"/>
<stop offset="0.58" stop-color="#C9DA26"/>
<stop offset="0.89" stop-color="#A2CC39"/>
</linearGradient>
<linearGradient id="paint1_linear_48_96" x1="5.31162" y1="4.62278" x2="14.2263" y2="1.27064" gradientUnits="userSpaceOnUse">
<stop offset="0.06" stop-color="#0FA7DF"/>
<stop offset="0.54" stop-color="#0098F8"/>
<stop offset="0.92" stop-color="#0290EA"/>
</linearGradient>
<linearGradient id="paint2_linear_48_96" x1="13.1825" y1="25.7692" x2="23.2424" y2="23.5268" gradientUnits="userSpaceOnUse">
<stop offset="0.12" stop-color="#A2CC39"/>
<stop offset="0.28" stop-color="#86C239"/>
<stop offset="0.87" stop-color="#219F38"/>
</linearGradient>
<linearGradient id="paint3_linear_48_96" x1="13.4136" y1="1.07133" x2="22.023" y2="3.69289" gradientUnits="userSpaceOnUse">
<stop offset="0.06" stop-color="#0290EA"/>
<stop offset="0.79" stop-color="#0C89CA"/>
</linearGradient>
<linearGradient id="paint4_linear_48_96" x1="4.73145" y1="22.7524" x2="14.1113" y2="26.2115" gradientUnits="userSpaceOnUse">
<stop offset="0.13" stop-color="#F1E813"/>
<stop offset="0.3" stop-color="#EAE616"/>
<stop offset="0.53" stop-color="#D8DF1F"/>
<stop offset="0.8" stop-color="#BAD52D"/>
<stop offset="0.98" stop-color="#A2CC39"/>
</linearGradient>
<linearGradient id="paint5_linear_48_96" x1="1.58246" y1="14.2367" x2="5.42366" y2="4.37701" gradientUnits="userSpaceOnUse">
<stop offset="0.07" stop-color="#A2CC39"/>
<stop offset="0.26" stop-color="#81C45E"/>
<stop offset="0.92" stop-color="#0FA7DF"/>
</linearGradient>
</defs>
</svg>
