<svg width="101" height="50" viewBox="0 0 101 50" fill="none" xmlns="http://www.w3.org/2000/svg">
<g clip-path="url(#clip0_48_106)">
<path d="M0.40625 10.8838L6.46124 21.7067V28.3084L0.413333 39.11L0.40625 10.8838Z" fill="#5B57A2"/>
<path d="M23.6543 17.7676L29.3281 14.2901L40.9397 14.2793L23.6543 24.8685V17.7676Z" fill="#D90751"/>
<path d="M23.623 10.8196L23.655 25.1487L17.5859 21.4196V0L23.623 10.8196Z" fill="#FAB718"/>
<path d="M40.9404 14.2796L29.3284 14.2904L23.623 10.8196L17.5859 0L40.9404 14.2796Z" fill="#ED6F26"/>
<path d="M23.655 39.17V32.2179L17.5859 28.5596L17.5892 50.0004L23.655 39.17Z" fill="#63B22F"/>
<path d="M29.3146 35.7242L6.46083 21.7067L0.40625 10.8838L40.9157 35.71L29.3146 35.7242Z" fill="#1487C9"/>
<path d="M17.5898 50.0004L23.6548 39.17L29.3144 35.7241L40.9156 35.71L17.5898 50.0004Z" fill="#017F36"/>
<path d="M0.414062 39.1093L17.6361 28.5593L11.8461 25.0068L6.46197 28.3077L0.414062 39.1093Z" fill="#984995"/>
<path fill-rule="evenodd" clip-rule="evenodd" d="M66.6079 26.6991C70.5153 26.6991 73.4169 24.3033 73.4169 20.6713C73.4169 17.1557 71.2762 14.8734 67.6982 14.8734C66.047 14.8734 64.6844 15.4544 63.6582 16.4574C63.9032 14.3847 65.6561 12.871 67.5861 12.871C68.0316 12.871 71.3849 12.8641 71.3849 12.8641L73.2812 9.23535C73.2812 9.23535 69.0712 9.33138 67.1141 9.33138C62.6424 9.4091 59.622 13.4736 59.622 18.4101C59.622 24.1617 62.5678 26.6991 66.6079 26.6991ZM66.6317 18.0875C68.0825 18.0875 69.0881 19.0408 69.0881 20.6709C69.0881 22.1378 68.1946 23.3467 66.6317 23.3499C65.1365 23.3499 64.1307 22.2297 64.1307 20.6957C64.1307 19.0653 65.1365 18.0875 66.6317 18.0875ZM88.5052 14.038V26.2621H84.1402V17.6871H79.9373V26.2621H75.5723V14.0372L88.5052 14.038ZM53.4985 22.8763C55.0383 22.764 56.0689 22.1695 56.0689 22.1695L57.6843 25.1582C56.6498 25.8227 54.9524 26.2548 53.7219 26.3004C49.3199 26.3813 46.2578 23.7027 46.2578 19.8001C46.2578 15.9468 49.5156 13.2043 53.7219 13.2043C55.3886 13.2043 56.8215 13.6514 57.8973 14.4669C57.6709 14.8681 57.3631 15.4239 57.0705 15.9557L56.602 16.8094L56.1758 17.589C56.1758 17.589 54.6257 16.7768 53.454 16.7768C51.5432 16.7768 50.1516 17.8873 50.1516 19.8245C50.1516 21.811 51.7285 22.9288 53.4985 22.8763ZM50.1528 34.4888C50.0195 34.6589 49.8442 34.7875 49.6338 34.8742C49.4177 34.962 49.1868 35.0068 48.9537 35.0056C48.7219 35.0088 48.4914 34.9702 48.2733 34.8917C48.0774 34.8204 47.8984 34.7094 47.7474 34.5657C47.5985 34.4217 47.4815 34.2479 47.4042 34.0555C47.3204 33.8451 47.2787 33.6201 47.2813 33.3934C47.2813 33.1684 47.32 32.9601 47.4003 32.7628C47.4774 32.565 47.5895 32.3953 47.7299 32.2529C47.7936 32.187 47.863 32.128 47.9374 32.0751L47.983 32.0442C48.0308 32.0128 48.0807 31.9835 48.1323 31.9567L48.1879 31.929L48.228 31.9099C48.4208 31.8265 48.6312 31.7813 48.8625 31.7813C49.1115 31.7813 49.3429 31.8126 49.5532 31.8749C49.6861 31.914 49.8061 31.9697 49.9135 32.0421C49.9766 32.0849 50.0352 32.1333 50.0895 32.1874L49.8338 32.6207C49.7099 32.5084 49.5642 32.4234 49.4057 32.3705C49.2552 32.3221 49.0977 32.2977 48.9396 32.2981C48.7995 32.2981 48.6662 32.3257 48.5366 32.3778C48.409 32.4291 48.2923 32.5044 48.193 32.6C48.0912 32.6976 48.0113 32.8161 47.9578 32.9467C47.8984 33.0814 47.8703 33.2307 47.8703 33.3971C47.8703 33.5668 47.9016 33.7194 47.9612 33.8512C48.0213 33.9863 48.1016 34.101 48.2033 34.1979C48.3049 34.2951 48.4241 34.3676 48.5608 34.4164C48.6166 34.4376 48.6735 34.4542 48.7317 34.4664C48.8165 34.4843 48.9044 34.4929 48.9958 34.4929C49.185 34.4929 49.3571 34.4542 49.5042 34.3814C49.5813 34.344 49.6544 34.2992 49.7223 34.2475C49.7825 34.2016 49.8387 34.1503 49.8899 34.0941L50.1528 34.4888ZM50.8751 34.9328V31.8472H51.4291V34.1462L53.2312 31.8472H53.7854V34.9332H53.2312V32.6346L51.4291 34.9332L50.8751 34.9328ZM57.4563 34.4888C57.32 34.6605 57.1411 34.7932 56.9375 34.8742C56.8138 34.9242 56.685 34.9604 56.5538 34.982C56.4559 34.9979 56.3566 35.006 56.2571 35.0056C56.1642 35.0068 56.0714 35.0015 55.9796 34.9893C55.8425 34.9714 55.7076 34.9389 55.577 34.8917C55.5322 34.8754 55.4883 34.8571 55.4454 34.8367C55.3935 34.8119 55.343 34.7842 55.2942 34.7541C55.2071 34.7 55.1255 34.6369 55.0509 34.5657C54.9017 34.4217 54.7848 34.2479 54.7074 34.0555C54.6238 33.8451 54.5819 33.6201 54.5846 33.3934C54.5846 33.1684 54.6232 32.9601 54.7038 32.7628C54.7813 32.565 54.8932 32.3953 55.0334 32.2529C55.1738 32.1072 55.342 31.9966 55.5312 31.9099C55.731 31.822 55.9475 31.7781 56.1658 31.7813C56.3106 31.7813 56.4492 31.7919 56.5812 31.813L56.6587 31.8265C56.688 31.8322 56.7171 31.8387 56.7458 31.8456L56.7969 31.8582L56.8567 31.8749C57.0671 31.9371 57.2457 32.0413 57.3932 32.1874L57.1371 32.6207C57.0136 32.5084 56.8679 32.4234 56.7096 32.3705C56.6716 32.3583 56.6331 32.3473 56.5942 32.3379C56.5676 32.3318 56.5407 32.3266 56.5137 32.3217C56.4882 32.3172 56.4626 32.3131 56.437 32.3099L56.3804 32.3038C56.3348 32.2997 56.2891 32.2977 56.2433 32.2981C55.9648 32.2989 55.6972 32.4071 55.4962 32.6C55.4702 32.6256 55.4456 32.6521 55.4224 32.6802C55.3949 32.7131 55.3695 32.7481 55.3463 32.7843C55.3133 32.836 55.2848 32.8901 55.2612 32.9467C55.2482 32.976 55.2368 33.0061 55.2269 33.037C55.2153 33.0724 55.2057 33.1086 55.198 33.1456C55.1817 33.225 55.1738 33.3084 55.1738 33.3971C55.1738 33.4773 55.1807 33.5534 55.1943 33.6254C55.2024 33.6681 55.2128 33.7088 55.2254 33.7483C55.2368 33.7841 55.2501 33.8183 55.2649 33.8512C55.3025 33.9367 55.3485 34.014 55.4028 34.0836C55.4346 34.1242 55.4692 34.1621 55.5066 34.1979C55.6083 34.2951 55.728 34.3676 55.8645 34.4164C56.0012 34.4648 56.145 34.4929 56.299 34.4929C56.3637 34.4929 56.426 34.4884 56.486 34.4795C56.6016 34.4628 56.7084 34.4294 56.8075 34.3814C56.9531 34.311 57.0842 34.2134 57.1932 34.0941L57.4563 34.4888ZM57.7437 31.8472H60.5837V32.3953H59.4407V34.9328H58.8867V32.3953H57.7437V31.8472ZM63.7148 34.5967C63.5606 34.735 63.382 34.8359 63.1714 34.9018C62.9685 34.9673 62.757 35.0011 62.5439 35.0023C62.4585 35.0036 62.3733 34.9991 62.2886 34.9893C62.1403 34.9718 61.9942 34.938 61.8532 34.888C61.6461 34.8119 61.4712 34.7041 61.3273 34.5621C61.1804 34.418 61.0657 34.2443 60.9906 34.0526C60.9135 33.8549 60.8714 33.6331 60.8714 33.3902C60.8693 33.1749 60.9062 32.9613 60.9802 32.7595C61.0476 32.5695 61.1538 32.3961 61.2919 32.2496C61.3578 32.1817 61.4299 32.1198 61.507 32.0653C61.5963 32.0023 61.6923 31.9489 61.7936 31.9062C61.9092 31.8582 62.0343 31.8228 62.1696 31.8017C62.2679 31.7862 62.3714 31.7781 62.4807 31.7781C62.545 31.7776 62.6091 31.7813 62.6723 31.789C62.7297 31.796 62.7867 31.8061 62.8428 31.8191C62.9114 31.8354 62.9791 31.8566 63.0452 31.8822C63.2172 31.9461 63.3746 32.0438 63.5081 32.1699C63.5423 32.2029 63.5744 32.237 63.6047 32.2732C63.6298 32.303 63.6536 32.3335 63.6759 32.3652C63.7103 32.4136 63.7417 32.4649 63.7693 32.5174C63.7864 32.5499 63.8021 32.5833 63.8165 32.6171C63.8483 32.6887 63.8735 32.7632 63.8922 32.8409C63.9189 32.9511 63.9323 33.0683 63.9323 33.1928C63.9323 33.3349 63.9219 33.4561 63.8973 33.5635H61.499C61.5236 33.8553 61.6323 34.0836 61.8319 34.2467C62.0319 34.4099 62.2843 34.4892 62.5893 34.4892C62.6933 34.4892 62.7928 34.4811 62.887 34.4648C62.9771 34.4494 63.0627 34.4266 63.1435 34.396C63.3081 34.3334 63.4448 34.2573 63.5466 34.167L63.7148 34.5967ZM62.4561 32.2948C62.1686 32.2948 61.9407 32.3709 61.769 32.5267C61.5991 32.6802 61.4909 32.8897 61.464 33.1163H63.3573C63.3431 32.86 63.2595 32.659 63.1014 32.5133C63.0752 32.4889 63.0473 32.4669 63.018 32.447C62.9903 32.4279 62.9612 32.4108 62.9307 32.3953C62.9077 32.3835 62.8837 32.3729 62.8589 32.3632C62.7419 32.3176 62.6072 32.2948 62.4561 32.2948ZM64.6861 31.8472H65.191L66.3902 33.3764L67.526 31.8472H68.017V34.9332H67.4632V32.683L66.3831 34.1149H66.3619L65.2403 32.6826V34.9328H64.6861V31.8472ZM69.2822 31.9404C69.3608 31.907 69.4417 31.8794 69.5243 31.8578C69.7032 31.8094 69.8889 31.7817 70.0856 31.7817C70.2771 31.7817 70.4441 31.8025 70.5863 31.844C70.6814 31.8716 70.7654 31.9087 70.838 31.9546C70.9074 31.9982 70.9664 32.0503 71.0148 32.1109C71.0929 32.2065 71.1536 32.32 71.1971 32.4511C71.2532 32.6199 71.2809 32.8177 71.2809 33.0439V34.9368H70.7623V34.5381C70.671 34.6561 70.5448 34.7598 70.3868 34.8502C70.2293 34.9401 70.0222 34.9852 69.7628 34.9852C69.5748 34.9852 69.411 34.9498 69.2712 34.879C69.2407 34.8636 69.2114 34.8465 69.1831 34.8278C69.164 34.8148 69.1453 34.8009 69.1272 34.7867C69.1071 34.7708 69.0875 34.7537 69.0686 34.7358C68.8934 34.5694 68.8055 34.3334 68.8055 34.0319C68.8039 33.8866 68.835 33.7434 68.8969 33.612C68.9547 33.4923 69.0385 33.3869 69.1422 33.3039C69.244 33.2205 69.3701 33.1579 69.5172 33.1163C69.5463 33.1082 69.5758 33.1005 69.6055 33.0936L69.6503 33.0838L69.7005 33.0748C69.7917 33.059 69.8859 33.0504 69.9839 33.0504C70.1182 33.0521 70.2519 33.0659 70.3835 33.0923C70.5196 33.1159 70.6488 33.1692 70.7623 33.2486C70.7623 33.1871 70.7609 33.1277 70.7581 33.0704L70.7526 32.9861C70.7489 32.9406 70.744 32.8962 70.7377 32.8531C70.7202 32.7318 70.6885 32.6281 70.6394 32.5447C70.6162 32.5056 70.5886 32.4694 70.556 32.4376C70.5408 32.4226 70.5245 32.4083 70.507 32.3953C70.4952 32.3868 70.4828 32.3782 70.4698 32.3705C70.4557 32.362 70.4411 32.3542 70.4256 32.3469C70.331 32.2985 70.2081 32.2737 70.0539 32.2737C69.861 32.2737 69.6997 32.2948 69.5736 32.34L69.5064 32.3648L69.4497 32.3864L69.3831 32.4136C69.3203 32.4401 69.2576 32.4686 69.1947 32.4995L69.0476 32.0621C69.1227 32.0157 69.2012 31.975 69.2822 31.9404ZM69.9561 34.4892C70.1593 34.4892 70.3243 34.4481 70.4506 34.3578C70.5644 34.2821 70.6681 34.1922 70.7589 34.0905V33.6986C70.6976 33.6547 70.6323 33.6181 70.5629 33.5884C70.5241 33.5717 70.484 33.5574 70.4427 33.5456C70.414 33.5375 70.3847 33.5302 70.3548 33.5237C70.3206 33.5163 70.2856 33.5106 70.2498 33.5062C70.1882 33.4984 70.1241 33.4944 70.0578 33.4944C69.9735 33.4944 69.8932 33.5045 69.8122 33.5253C69.7721 33.535 69.7331 33.5485 69.6956 33.5656C69.6621 33.5806 69.6295 33.5985 69.5986 33.6193C69.539 33.6608 69.4865 33.7129 69.4476 33.7788L69.4397 33.793C69.4338 33.804 69.4285 33.815 69.4238 33.8264C69.4185 33.839 69.4141 33.852 69.4102 33.8655C69.4065 33.8777 69.4035 33.8903 69.4008 33.9033C69.3945 33.9346 69.3915 33.968 69.3915 34.0038C69.3915 34.1495 69.4405 34.2675 69.539 34.3574C69.5955 34.4074 69.6661 34.4437 69.7502 34.4652C69.8116 34.4811 69.8804 34.4892 69.9561 34.4892ZM76.488 30.4955C76.3898 30.6237 76.2848 30.7103 76.1727 30.762C76.0602 30.8141 75.9377 30.8491 75.8044 30.8768C75.7043 30.8975 75.5998 30.9166 75.4901 30.9366L75.3802 30.9569C75.214 30.9874 75.0525 31.0399 74.8997 31.1128C74.8417 31.1376 74.7862 31.1677 74.7339 31.2023C74.6964 31.2271 74.6606 31.254 74.6267 31.2833L74.5858 31.3203L74.5609 31.3451L74.5351 31.3724C74.5162 31.3948 74.4979 31.4175 74.4804 31.4407C74.4454 31.4867 74.4132 31.5343 74.3839 31.584C74.3544 31.634 74.3278 31.6861 74.304 31.7402C74.244 31.8749 74.1986 32.0177 74.1669 32.1666C74.1355 32.316 74.118 32.4612 74.1073 32.6032H74.1215C74.1705 32.4926 74.2405 32.3953 74.3247 32.3082C74.4108 32.2204 74.5087 32.1447 74.6157 32.0832C74.6391 32.0698 74.6627 32.0568 74.6867 32.0442C74.7137 32.0303 74.7412 32.0173 74.7691 32.0051C74.833 31.977 74.8989 31.9534 74.9664 31.9343C75.0928 31.8997 75.2224 31.8822 75.3556 31.8822C75.4858 31.8806 75.6154 31.8948 75.7416 31.9245C75.8152 31.942 75.8876 31.9648 75.9584 31.9929C76.1328 32.0621 76.2897 32.1691 76.418 32.3054C76.5462 32.4446 76.6443 32.6085 76.7055 32.7872C76.7722 32.9747 76.8072 33.1859 76.8072 33.4179C76.8072 33.6331 76.7686 33.8374 76.688 34.0282C76.6549 34.1104 76.615 34.1889 76.569 34.263C76.5086 34.3606 76.438 34.4502 76.3584 34.5311C76.2144 34.6776 76.0427 34.794 75.8535 34.8742C75.6573 34.9576 75.4398 35.0027 75.2049 35.0027C74.9489 35.0027 74.7211 34.9576 74.5176 34.8676C74.3144 34.7777 74.1422 34.6524 73.9986 34.486C73.8548 34.3228 73.7465 34.1222 73.669 33.8825C73.5919 33.6433 73.5535 33.3768 73.5535 33.0818C73.5535 32.8531 73.5673 32.6142 73.5956 32.3644C73.623 32.1194 73.6784 31.879 73.7602 31.6466C73.8409 31.4175 73.9602 31.2096 74.1111 31.0261C74.2619 30.8422 74.4615 30.6969 74.7107 30.5891L74.765 30.5655C74.7917 30.5545 74.8185 30.5439 74.8456 30.5342C74.8948 30.5163 74.9444 30.5 74.9947 30.4853C75.0248 30.4768 75.0551 30.4686 75.0856 30.4613C75.1239 30.452 75.1625 30.4438 75.2014 30.4369L75.3933 30.4039L75.496 30.386L75.601 30.3673C75.6626 30.3567 75.7237 30.3425 75.7837 30.3246C75.8309 30.3108 75.8775 30.2949 75.9235 30.277C75.9489 30.2672 75.9737 30.2546 75.9977 30.2404L76.029 30.22C76.0856 30.1806 76.1381 30.1277 76.1865 30.0622L76.488 30.4955ZM74.1461 33.1859C74.1429 33.369 74.1689 33.5517 74.223 33.7267C74.2694 33.8748 74.3418 34.0132 74.4368 34.136C74.5276 34.2459 74.6413 34.3346 74.7701 34.396C74.8997 34.4583 75.0403 34.4896 75.1943 34.4896C75.3109 34.4896 75.4179 34.4738 75.5176 34.4416L75.5538 34.4294C75.5733 34.4225 75.5926 34.4148 75.6118 34.4062C75.733 34.355 75.8427 34.2793 75.9342 34.1849C76.0258 34.0901 76.0974 33.9778 76.1448 33.8549C76.1934 33.7304 76.2219 33.5949 76.2219 33.4459C76.2219 33.1444 76.1377 32.8946 75.9656 32.694C75.908 32.6273 75.8421 32.5719 75.7674 32.5276C75.7062 32.4909 75.639 32.4621 75.566 32.4405C75.4632 32.4104 75.3489 32.3953 75.2224 32.3953C74.9607 32.3933 74.706 32.48 74.5001 32.6415C74.409 32.7147 74.3319 32.7977 74.2722 32.8913C74.2515 32.9223 74.2328 32.9544 74.2163 32.9878C74.2031 33.0146 74.1911 33.0419 74.1807 33.0696C74.1665 33.1074 74.1549 33.1465 74.1461 33.1859ZM80.5027 31.8476H81.0569V34.9336H80.5027V31.8476ZM78.1606 31.8476H77.6064H77.6031V34.9368H78.6094C78.6599 34.9368 78.7083 34.9352 78.7551 34.9323C78.7846 34.9307 78.8133 34.9283 78.8413 34.9254C78.8666 34.923 78.8914 34.9201 78.9156 34.9165C79.0305 34.9002 79.1337 34.8742 79.2265 34.84C79.2655 34.8253 79.3028 34.8099 79.3382 34.7932L79.3835 34.7704L79.4193 34.7513C79.4446 34.7366 79.4688 34.7212 79.4918 34.7049C79.5066 34.6947 79.5209 34.6841 79.5347 34.6736C79.5516 34.6601 79.5679 34.6463 79.5835 34.6321C79.5984 34.6186 79.6126 34.6044 79.626 34.5901C79.7243 34.486 79.7982 34.3716 79.8403 34.2402C79.8671 34.1621 79.8856 34.084 79.896 34.0046C79.9033 33.9497 79.9068 33.8939 79.9068 33.8374C79.9068 33.8077 79.9058 33.7784 79.9038 33.7491C79.9021 33.7234 79.8997 33.6982 79.8966 33.673C79.8869 33.5932 79.8702 33.5155 79.8472 33.4386C79.8085 33.3108 79.7418 33.1965 79.6472 33.0993C79.5526 33.002 79.4265 32.9227 79.2686 32.8633C79.1105 32.8047 78.9144 32.7733 78.6727 32.7733H78.1606V31.8476ZM78.5638 34.4201H78.1606V33.2897V33.2824H78.571C78.6226 33.2824 78.6715 33.284 78.7176 33.2877C78.7884 33.2933 78.8525 33.3035 78.9101 33.3178C78.9534 33.3283 78.9929 33.3418 79.0287 33.3572C79.0741 33.3772 79.1131 33.4008 79.1461 33.4284C79.1833 33.461 79.2147 33.498 79.2399 33.5403C79.2678 33.5867 79.2885 33.6392 79.3013 33.6974C79.3121 33.7458 79.3176 33.7983 79.3176 33.8549C79.3176 34.0388 79.2619 34.1771 79.1494 34.2744C79.1003 34.3167 79.0354 34.3501 78.9547 34.3741C78.8505 34.4046 78.7199 34.4201 78.5638 34.4201ZM84.721 34.4888C84.5878 34.6589 84.4124 34.7875 84.202 34.8742C83.986 34.9616 83.7551 35.0064 83.5219 35.0056C83.2902 35.0088 83.0597 34.9702 82.8416 34.8917C82.6457 34.8204 82.4666 34.7094 82.3157 34.5657C82.2585 34.5104 82.206 34.4506 82.1586 34.3871L82.1201 34.333C82.1063 34.3126 82.0931 34.2919 82.0803 34.2707L82.0626 34.241C82.051 34.2211 82.04 34.2007 82.0294 34.18C82.0152 34.1527 82.0017 34.1251 81.9891 34.0966L81.972 34.0555C81.8886 33.8451 81.8469 33.6201 81.8496 33.3934C81.8496 33.1684 81.8878 32.9601 81.9686 32.7628C82.0457 32.565 82.1578 32.3953 82.2982 32.2529C82.4385 32.1072 82.6066 31.9966 82.7962 31.9099C82.996 31.822 83.2125 31.7781 83.4308 31.7813C83.6794 31.7813 83.9111 31.8126 84.1215 31.8749C84.3321 31.9371 84.5107 32.0413 84.6578 32.1874L84.402 32.6207C84.3502 32.5735 84.2944 32.5312 84.2354 32.4942C84.2063 32.4759 84.1764 32.4588 84.1457 32.4429C84.1217 32.4307 84.0973 32.4193 84.0722 32.4083L84.0255 32.3892L83.974 32.3705C83.8234 32.3221 83.666 32.2977 83.5079 32.2981C83.4515 32.2981 83.3962 32.3025 83.3417 32.3111C83.2609 32.3241 83.1822 32.3469 83.1044 32.3778C82.9769 32.4291 82.8603 32.5048 82.7612 32.6C82.7287 32.6317 82.6983 32.6655 82.6705 32.7009L82.6461 32.733C82.598 32.7994 82.5578 32.871 82.526 32.9467C82.4666 33.0814 82.4385 33.2307 82.4385 33.3971C82.4385 33.5668 82.4699 33.7194 82.5295 33.8512C82.5891 33.9863 82.6699 34.101 82.7716 34.1979C82.8731 34.2951 82.9923 34.3676 83.1291 34.4164C83.2662 34.4648 83.4098 34.4929 83.564 34.4929C83.678 34.4929 83.7842 34.4791 83.8836 34.4518C83.9087 34.4449 83.9333 34.4371 83.9575 34.4286C83.997 34.4152 84.0352 34.3993 84.0724 34.3814C84.2181 34.311 84.3491 34.2134 84.4582 34.0941L84.721 34.4888ZM85.0085 31.8472H87.8487V32.3953H86.7053V34.9328H86.1515V32.3953H85.0085V31.8472ZM88.4515 31.848H89.0057V32.2118C89.1107 32.0865 89.2615 31.9868 89.4545 31.9034C89.6474 31.82 89.8506 31.7785 90.0677 31.7785C90.1029 31.7776 90.1379 31.7785 90.1729 31.7805C90.2435 31.7846 90.3135 31.7935 90.3825 31.8073C90.4799 31.8269 90.5753 31.8566 90.6673 31.8961C90.8404 31.9685 90.9953 32.0788 91.1198 32.2187C91.2469 32.3624 91.3446 32.5296 91.4074 32.7107C91.4398 32.8034 91.4646 32.9007 91.4817 33.0028C91.4998 33.1111 91.509 33.2242 91.509 33.3422C91.509 33.5741 91.4703 33.793 91.3932 33.9969C91.3161 34.2016 91.2072 34.3749 91.0636 34.5246C90.9175 34.6736 90.7438 34.7924 90.5519 34.8746C90.3519 34.9576 90.131 35.0023 89.8856 35.0023C89.7206 35.0023 89.5595 34.9852 89.4053 34.9507C89.2511 34.9161 89.1178 34.864 89.0057 34.7912V36.306H88.4515V31.848ZM89.907 32.2948C89.721 32.2948 89.5493 32.3367 89.3915 32.4201C89.234 32.5031 89.104 32.6037 89.0061 32.7212V34.2504C89.1316 34.3346 89.2702 34.3981 89.4161 34.438C89.5493 34.4725 89.6899 34.4896 89.8403 34.4896C89.9955 34.4925 90.1495 34.4628 90.2927 34.403C90.4211 34.3505 90.5371 34.2711 90.6327 34.1706C90.7279 34.0689 90.801 33.9485 90.8469 33.817C90.8958 33.6783 90.924 33.5294 90.924 33.3629C90.924 33.3279 90.923 33.2933 90.9208 33.2596L90.9161 33.2046L90.9116 33.1656L90.9055 33.1253L90.8984 33.0866L90.8886 33.0415C90.8799 33.0044 90.8695 32.9682 90.8573 32.9328C90.8152 32.8014 90.7487 32.6903 90.6612 32.5931C90.5731 32.4962 90.4681 32.4234 90.342 32.3713C90.212 32.3192 90.0681 32.2948 89.907 32.2948ZM95.2044 31.8476H95.7586V34.9332H95.2044V31.8476ZM92.8591 31.8476H92.3049H92.3016V34.9364H93.3077C93.5532 34.9364 93.7565 34.9018 93.9249 34.84C94.0932 34.7773 94.2265 34.6943 94.3245 34.5901C94.4228 34.486 94.4964 34.3716 94.5385 34.2398C94.5839 34.1084 94.6049 33.9761 94.6049 33.8374C94.6049 33.6986 94.5839 33.5672 94.5453 33.4386C94.507 33.3108 94.4403 33.1961 94.3457 33.0993C94.2511 33.002 94.1249 32.9223 93.9668 32.8633C93.809 32.8047 93.6128 32.7733 93.3707 32.7733H92.8591V31.8476ZM93.2662 34.4201H92.8627V33.2897V33.2824H93.2731C93.5394 33.2824 93.7323 33.3312 93.8482 33.4284C93.9603 33.5257 94.0197 33.6673 94.0197 33.8549C94.0197 34.0388 93.9636 34.1771 93.8515 34.274C93.7394 34.3716 93.5429 34.4201 93.2662 34.4201ZM98.4165 33.3349L99.6014 34.9332H98.9215L98.0062 33.6848L97.077 34.9332H96.4319L97.6098 33.3621L96.5018 31.8472H97.1824L98.0273 33.0122L98.8861 31.8472H99.5314L98.4165 33.3349ZM49.7429 38.7466H48.0424V41.3195H47.4882V38.2339H50.2966V41.3195H49.7429V38.7466ZM53.4416 38.7812H52.3478L52.3124 39.3012C52.2882 39.5783 52.2585 39.8208 52.2215 40.03C52.1995 40.1533 52.1751 40.2652 52.1478 40.3657C52.074 40.6363 51.9828 40.8442 51.8779 40.9899C51.7729 41.1355 51.6498 41.236 51.5094 41.2849C51.3646 41.3374 51.2114 41.363 51.0573 41.361L51.0152 40.8267C51.0748 40.83 51.1448 40.8165 51.2219 40.7819C51.2995 40.7474 51.3766 40.6709 51.4498 40.5569C51.5237 40.4385 51.5904 40.2721 51.6498 40.0573C51.7094 39.8388 51.7483 39.5547 51.769 39.1971L51.8254 38.2368H53.9958V41.3227H53.4416V38.7812ZM55.0122 38.4451C55.1489 38.3584 55.3103 38.2893 55.4893 38.2409C55.672 38.1904 55.8606 38.1648 56.0502 38.1648C56.4919 38.1648 56.804 38.275 56.9794 38.4939C57.158 38.7125 57.2461 39.0245 57.2461 39.4266V41.3195H56.7269V40.9207C56.6355 41.0387 56.5094 41.1429 56.3519 41.2328C56.1939 41.3231 55.9874 41.3683 55.7278 41.3683C55.4403 41.3683 55.2085 41.2849 55.0336 41.1185C54.9373 41.0277 54.8678 40.9158 54.8242 40.7836C54.7884 40.6741 54.7705 40.5512 54.7705 40.4149C54.7703 40.393 54.7707 40.371 54.7719 40.349C54.7746 40.3006 54.7809 40.253 54.7909 40.2062C54.8061 40.1333 54.8297 40.0625 54.8615 39.995C54.9192 39.8754 55.0031 39.77 55.1068 39.687C55.1622 39.6414 55.2246 39.6023 55.2938 39.5694C55.352 39.5417 55.4148 39.5185 55.4822 39.4994C55.6293 39.4575 55.7839 39.4335 55.9485 39.4335C56.0828 39.4351 56.2164 39.4489 56.3481 39.475C56.3985 39.4839 56.448 39.497 56.496 39.5136C56.5778 39.5421 56.6555 39.5816 56.7269 39.6308C56.7269 39.4888 56.7198 39.3574 56.7023 39.2357C56.6929 39.1714 56.6797 39.112 56.662 39.0579C56.6528 39.0302 56.6427 39.0038 56.6313 38.979C56.6229 38.9611 56.614 38.9436 56.6044 38.9273C56.5552 38.8439 56.4852 38.7747 56.3902 38.7295C56.3285 38.6982 56.2553 38.6766 56.1688 38.6657L56.1265 38.6612C56.0923 38.6583 56.0563 38.6567 56.0185 38.6567C55.826 38.6567 55.6643 38.6779 55.5381 38.7226C55.5015 38.7356 55.4649 38.7495 55.4283 38.7637C55.339 38.7987 55.2494 38.8378 55.1597 38.8821L55.0122 38.4451ZM55.9243 40.8723C56.0514 40.8723 56.1635 40.856 56.2604 40.8218C56.3186 40.8011 56.3713 40.7742 56.4185 40.74C56.5324 40.6648 56.6362 40.5748 56.7273 40.4731V40.0813C56.5344 39.9429 56.2992 39.8774 56.026 39.8774C55.9941 39.8774 55.9621 39.8786 55.9304 39.8815C55.8799 39.8864 55.8299 39.8953 55.7806 39.9079C55.6997 39.9291 55.6264 39.96 55.5668 40.0019C55.5072 40.0434 55.4543 40.0955 55.4161 40.1614C55.3772 40.2273 55.3597 40.3002 55.3597 40.3868C55.3597 40.5321 55.4089 40.6501 55.5072 40.74C55.6053 40.8271 55.7418 40.8723 55.9243 40.8723ZM57.7928 38.2339H60.6329V38.7816H59.4895V41.3195H58.9358V38.782H57.7928V38.2339ZM63.4709 41.1856C63.3927 41.2263 63.3095 41.2605 63.2206 41.2881C63.0103 41.3541 62.7999 41.389 62.5928 41.389C62.3576 41.3919 62.1238 41.3532 61.9023 41.2743C61.6954 41.1982 61.5198 41.0904 61.3761 40.9484C61.2323 40.8064 61.1169 40.6363 61.0394 40.4389C60.9623 40.2408 60.9202 40.0194 60.9202 39.7765C60.9184 39.5612 60.9552 39.3476 61.0291 39.1454C61.0606 39.0571 61.1005 38.9725 61.1481 38.8923C61.2026 38.8003 61.2673 38.7141 61.3412 38.636C61.4834 38.4887 61.6541 38.3719 61.8429 38.2925C62.0424 38.2091 62.2703 38.1644 62.5299 38.1644C62.723 38.1631 62.9144 38.1985 63.0945 38.2685C63.2664 38.3324 63.4237 38.4305 63.5569 38.5562C63.689 38.6832 63.7939 38.8353 63.8658 39.0034C63.9429 39.1767 63.9815 39.3676 63.9815 39.5787C63.9815 39.7212 63.9707 39.8428 63.9465 39.9498H61.5483C61.5729 40.2412 61.6811 40.4703 61.8811 40.633C62.0811 40.7958 62.3336 40.8755 62.6386 40.8755C62.842 40.8755 63.0278 40.8446 63.1923 40.7824C63.3573 40.7197 63.4941 40.6436 63.5958 40.5529L63.764 40.983C63.6749 41.0627 63.5777 41.1303 63.4709 41.1856ZM62.502 38.6775C62.2144 38.6775 61.9865 38.754 61.8148 38.9098C61.6451 39.0628 61.5367 39.2723 61.5098 39.4994H63.4031C63.3891 39.2426 63.3049 39.0416 63.1474 38.896C62.9895 38.754 62.7757 38.6775 62.502 38.6775ZM64.9528 38.2339H64.2515L65.3977 39.7212L64.199 41.3195H64.8789L66.0219 39.7216L64.9528 38.2339ZM66.7128 38.2339H66.1586V41.3195H66.7128V38.2339ZM67.4735 39.7212L68.6936 41.3195H68.0066L66.8494 39.7212L67.9256 38.2335H68.6133L67.4735 39.7212ZM71.7686 40.983C71.6144 41.1213 71.4357 41.2222 71.2252 41.2881C71.0223 41.3532 70.8107 41.3874 70.5977 41.389C70.3625 41.3919 70.1286 41.3532 69.907 41.2743C69.6999 41.1982 69.5249 41.0904 69.3811 40.9484C69.2373 40.8064 69.1215 40.6363 69.0444 40.4389C68.9673 40.2408 68.9254 40.0194 68.9254 39.7765C68.9231 39.5612 68.96 39.3476 69.034 39.1454C69.1014 38.9558 69.2078 38.782 69.3461 38.636C69.4881 38.4887 69.6588 38.3719 69.8474 38.2925C70.0474 38.2091 70.2753 38.1644 70.5345 38.1644C70.7275 38.1631 70.919 38.1985 71.099 38.2685C71.2712 38.3324 71.4284 38.4305 71.5619 38.5562C71.6937 38.6832 71.7985 38.8353 71.8703 39.0034C71.9478 39.1767 71.9861 39.3676 71.9861 39.5787C71.9861 39.7212 71.9757 39.8428 71.9511 39.9498H69.5528C69.5774 40.2412 69.6861 40.4703 69.8857 40.633C70.0856 40.7958 70.3381 40.8755 70.6431 40.8755C70.8466 40.8755 71.0323 40.8446 71.1973 40.7824C71.3619 40.7197 71.4986 40.6436 71.6003 40.5529L71.7686 40.983ZM70.507 38.6775C70.2195 38.6775 69.9915 38.754 69.8195 38.9098C69.6497 39.0628 69.5412 39.2723 69.5144 39.4994H71.4079C71.394 39.2426 71.3098 39.0416 71.1519 38.896C70.9941 38.754 70.777 38.6775 70.507 38.6775ZM73.8497 37.0556C73.9388 37.15 74.0672 37.1972 74.234 37.1972C74.5424 37.1972 74.7143 37.0169 74.739 36.6564H75.2578C75.2578 36.7947 75.2331 36.9196 75.1841 37.0376C75.1353 37.1556 75.0649 37.2562 74.9774 37.3392C74.9381 37.375 74.8962 37.4083 74.8513 37.4384C74.7919 37.4783 74.7268 37.5125 74.6549 37.5402C74.5835 37.5695 74.5076 37.5898 74.4265 37.6024C74.3642 37.6118 74.2989 37.6163 74.2303 37.6163C74.1642 37.6163 74.1011 37.6126 74.0413 37.6053C73.9457 37.5935 73.858 37.5723 73.7783 37.5402C73.6487 37.4885 73.5362 37.4226 73.4487 37.3392C73.3958 37.2891 73.3504 37.2321 73.3128 37.1691C73.2882 37.128 73.2668 37.084 73.2487 37.0376C73.2233 36.9721 73.2045 36.9042 73.1929 36.833C73.1836 36.7764 73.1787 36.7178 73.1787 36.6564H73.7012C73.7148 36.8326 73.7644 36.9656 73.8497 37.0556ZM73.2906 41.3195H72.7366V38.2335H73.2906V40.5321L75.0928 38.2335H75.647V41.3195H75.0928V39.0205L73.2906 41.3195Z" fill="black"/>
</g>
<defs>
<clipPath id="clip0_48_106">
<rect width="100" height="50" fill="white" transform="translate(0.40625)"/>
</clipPath>
</defs>
</svg>
