<svg width="118" height="36" viewBox="0 0 118 36" fill="none" xmlns="http://www.w3.org/2000/svg">
<path fill-rule="evenodd" clip-rule="evenodd" d="M55.3373 15.4187C56.4896 15.4187 57.5484 15.5119 58.358 15.8234C60.0709 16.4777 61.1608 17.9412 61.1608 20.0586C61.1608 22.1456 60.0087 23.7337 58.2958 24.3875C57.4859 24.699 56.3963 24.8236 54.9324 24.8236H44.4062V10H59.9463V13.4254H48.9218V15.4187H55.3373ZM55.088 21.0867C55.524 21.0867 55.8666 21.0552 56.1158 20.9621C56.6453 20.7752 56.8632 20.3078 56.8632 19.8717C56.8632 19.7072 56.8365 19.5555 56.7832 19.4208C56.7512 19.3404 56.7097 19.2659 56.6587 19.1977C56.5693 19.079 56.4506 18.9805 56.3027 18.9065C56.2574 18.8841 56.2102 18.8639 56.1611 18.8463C56.0821 18.8181 55.9982 18.7963 55.9092 18.7787C55.6717 18.7319 55.398 18.7196 55.088 18.7196H48.9218V21.0867H55.088ZM67.22 10H73.822L79.895 24.8236H74.8187L73.9466 22.6748H67.0955L66.2547 24.8236H61.1472L67.22 10ZM70.3654 13.4254L68.2164 19.4048H72.8568L70.7079 13.4254H70.3654ZM85.7073 19.3116V24.8236H81.1919V10H85.7073V15.4187H92.9635V10H97.4793V24.8236H92.9635V19.3116H85.7073ZM104.627 24.8236V19.2179H105.872L111.26 24.8236H117.271L109.765 17.1006L116.99 10H111.322L105.872 15.5747H104.627V10H100.111V24.8236H104.627Z" fill="#333333"/>
<path d="M0.40625 0H36.4063V18.1054C36.4063 22.7468 33.9302 27.0358 29.9109 29.3568L18.4063 36L6.90172 29.3568C2.88227 27.0358 0.40625 22.7468 0.40625 18.1054V0Z" fill="#FFDD2D"/>
<path fill-rule="evenodd" clip-rule="evenodd" d="M10.2852 9.52979V15.1609C11.0552 14.2914 12.4553 13.7029 14.056 13.7029H15.7957V20.249C15.7957 21.9906 15.3225 23.515 14.6204 24.3535H22.1873C21.4867 23.5142 21.0146 21.9917 21.0146 20.2524V13.7029H22.7543C24.3551 13.7029 25.7551 14.2914 26.5252 15.1609V9.52979H10.2852Z" fill="#333333"/>
</svg>
