<svg width="126" height="27" viewBox="0 0 126 27" fill="none" xmlns="http://www.w3.org/2000/svg">
<path d="M111.171 13.5628C111.171 10.0353 108.545 7.18207 104.836 7.18207C101.201 7.18207 98.6121 9.92575 98.6121 13.6954C98.6121 17.4842 101.274 20.2469 105.093 20.2469C107.517 20.2469 109.554 19.1455 110.821 16.9052L108.251 15.6918C107.646 16.8115 106.323 17.5397 105.093 17.5397C103.533 17.5397 101.734 16.3454 101.623 14.6849H111.079C111.139 14.314 111.17 13.9392 111.171 13.5628ZM101.678 12.4844C101.899 10.8048 103.036 9.70419 104.854 9.70419C106.654 9.70419 107.755 10.7826 107.902 12.4844H101.678ZM75.777 7.17969C72.0496 7.17969 69.4059 9.9051 69.4059 13.7502C69.4059 17.5572 72.0496 20.2453 75.8137 20.2453C79.5957 20.2453 82.2395 17.5572 82.2395 13.8066C82.2402 9.94242 79.523 7.17969 75.777 7.17969ZM75.8145 17.3889C73.941 17.3889 72.7848 15.9706 72.7848 13.7685C72.7848 11.5291 73.9598 9.9988 75.8145 9.9988C77.6871 9.9988 78.8621 11.51 78.8621 13.7685C78.8621 15.9896 77.7051 17.3889 75.8145 17.3889ZM62.5051 7.18286C60.9785 7.18286 59.8277 7.71333 58.6777 9.0276H58.3004C57.5277 7.84039 56.2668 7.18286 54.8527 7.18286C53.4199 7.16857 52.0676 7.85469 51.2184 9.0276H50.841L50.8223 9.00934V7.43857H47.6621V19.9697H51.0762V13.5207C51.0762 11.4385 51.9387 10.2148 53.4309 10.2148C54.8145 10.2148 55.7129 11.2567 55.7129 12.8449V19.9697H59.1449V13.5207C59.1449 11.4536 60.0074 10.2148 61.5176 10.2148C62.8824 10.2148 63.7629 11.2567 63.7629 12.864V19.9697H67.1957V12.4431C67.1957 9.17451 65.4699 7.18286 62.5051 7.18286ZM118.764 15.6243H118.52C118.52 15.4012 117.031 11.433 116.055 8.97439L115.445 7.43698H112.005L116.886 20.0118L114.963 24.8035H118.379L125.406 7.44095H121.964L121.402 8.75601L119.499 13.543C118.962 14.8802 118.743 15.5005 118.764 15.6243ZM91.7098 7.18286C90.1816 7.18286 88.8699 7.85866 87.9894 9.06492H87.6293L87.5941 9.04666V7.43857H84.4324V19.9697H87.8465V13.558C87.8465 11.5124 88.8191 10.2331 90.4168 10.2331C91.9082 10.2331 93.0043 11.3655 93.0043 13.1554V19.969H96.4184V12.4082C96.4191 9.33889 94.4426 7.18286 91.7098 7.18286Z" fill="black"/>
<path d="M24.4727 0C17.0953 0 11.168 6.06626 11.168 13.4801C11.168 20.9552 17.1539 26.9603 24.4711 26.9603C31.7883 26.9603 37.7797 20.894 37.7797 13.4801C37.7797 6.06626 31.7898 0 24.4727 0ZM24.4727 18.5045C21.7516 18.5045 19.5148 16.2373 19.5148 13.4801C19.5148 10.723 21.7516 8.45576 24.4727 8.45576C27.1938 8.45576 29.4312 10.723 29.4312 13.4801C29.3703 16.2373 27.1938 18.5045 24.4727 18.5045ZM11.168 3.91659V23.5241H6.45391L0.40625 3.91659H11.168Z" fill="#8B3FFD"/>
</svg>
