<svg width="564" height="484" viewBox="0 0 564 484" fill="none" xmlns="http://www.w3.org/2000/svg">
<path d="M547.301 99.6999C548.701 121.6 543.401 144.1 530.601 164L488.901 228.5L374.001 406.1L196.401 291.2L132.201 249.7C103.001 230.8 86.2013 200 84.1013 167.8C82.7013 145.9 88.0013 123.4 100.801 103.5C132.501 54.4999 198.001 40.3999 247.001 72.1999L311.201 113.7L353.001 49.0999C384.701 0.0999413 450.201 -14.0001 499.201 17.7999C528.401 36.6999 545.201 67.4999 547.301 99.6999Z" fill="#FE8180"/>
<path d="M12.7008 467.6C10.3008 467.6 8.50081 466.9 7.20081 465.6C5.90081 464.2 5.30078 462.4 5.30078 460V410C5.30078 407.6 6.00079 405.7 7.40079 404.4C8.80079 403.1 10.7008 402.4 13.2008 402.4C15.4008 402.4 17.1008 402.8 18.3008 403.7C19.5008 404.5 20.7008 405.9 21.7008 407.8L41.0008 442.5H37.9008L57.2008 407.8C58.3008 405.9 59.4008 404.5 60.7008 403.7C61.9008 402.9 63.6008 402.4 65.6008 402.4C68.1008 402.4 69.9008 403.1 71.2008 404.4C72.5008 405.7 73.1008 407.6 73.1008 410V460C73.1008 462.4 72.5008 464.3 71.2008 465.6C69.9008 466.9 68.1008 467.6 65.6008 467.6C63.2008 467.6 61.4008 466.9 60.1008 465.6C58.8008 464.2 58.2008 462.4 58.2008 460V429H60.1008L45.5008 454.2C44.7008 455.5 43.9008 456.5 42.9008 457.2C42.0008 457.9 40.7008 458.2 39.2008 458.2C37.7008 458.2 36.5008 457.9 35.5008 457.2C34.5008 456.5 33.6008 455.6 32.8008 454.2L18.0008 428.9H20.2008V459.9C20.2008 462.3 19.6008 464.2 18.3008 465.5C17.1008 466.9 15.2008 467.6 12.7008 467.6Z" fill="#182322"/>
<path d="M91.5992 467.6C89.9992 467.6 88.5992 467.3 87.5992 466.7C86.5992 466.1 85.6992 465.1 85.0992 463.9C84.4992 462.6 84.1992 461.1 84.1992 459.1V429.2C84.1992 426.8 84.7992 424.9 86.0992 423.6C87.3992 422.3 89.1992 421.6 91.4992 421.6C93.7992 421.6 95.5992 422.3 96.8992 423.6C98.0992 424.9 98.6992 426.8 98.6992 429.2V449.7H96.1992L113.599 426.7C114.399 425.6 115.499 424.5 116.899 423.3C118.299 422.1 120.199 421.5 122.599 421.5C124.299 421.5 125.699 421.8 126.699 422.4C127.699 423 128.599 424 129.099 425.2C129.599 426.4 129.899 428 129.899 430V460C129.899 462.4 129.299 464.3 128.099 465.6C126.899 466.9 125.099 467.6 122.799 467.6C120.399 467.6 118.599 466.9 117.399 465.6C116.199 464.2 115.599 462.4 115.599 460V439.5H118.099L100.599 462.5C99.7992 463.6 98.6992 464.8 97.3992 466C96.0992 467 94.1992 467.6 91.5992 467.6Z" fill="#182322"/>
<path d="M178.101 467.6C175.501 467.6 173.501 466.9 172.101 465.5C170.701 464.1 170.101 462.1 170.101 459.5V434.7H160.801V439.4C160.801 442.9 160.501 446.1 159.901 449.1C159.301 452.1 158.501 454.7 157.401 457C156.301 459.3 154.901 461.2 153.201 462.9C151.501 464.6 149.501 465.9 147.101 466.8C145.301 467.5 143.701 467.7 142.201 467.4C140.701 467.1 139.501 466.4 138.601 465.3C137.601 464.3 137.001 463.1 136.801 461.7C136.601 460.3 136.701 459 137.301 457.7C137.901 456.3 139.001 455.2 140.601 454.1C141.701 453.4 142.701 452.6 143.401 451.6C144.101 450.6 144.701 449.4 145.101 448.1C145.501 446.8 145.801 445.4 146.001 443.9C146.101 442.4 146.201 440.8 146.201 438.9V431.3C146.201 428.5 147.001 426.3 148.501 424.8C150.001 423.3 152.201 422.5 155.101 422.5H177.201C180.101 422.5 182.301 423.3 183.801 424.8C185.301 426.3 186.101 428.5 186.101 431.3V459.6C186.101 462.2 185.401 464.2 184.001 465.6C182.601 466.9 180.601 467.6 178.101 467.6Z" fill="#182322"/>
<path d="M219.199 467.8C214.299 467.8 209.999 466.9 206.299 465C202.599 463.1 199.799 460.5 197.799 456.9C195.799 453.4 194.699 449.3 194.699 444.5C194.699 440.9 195.299 437.7 196.399 434.8C197.499 432 199.199 429.5 201.399 427.5C203.599 425.5 206.099 423.9 209.099 422.9C212.099 421.9 215.499 421.3 219.199 421.3C224.099 421.3 228.399 422.2 232.099 424.1C235.799 426 238.599 428.6 240.599 432.1C242.599 435.6 243.599 439.7 243.599 444.5C243.599 448.1 242.999 451.3 241.899 454.1C240.799 456.9 239.099 459.4 236.899 461.4C234.699 463.5 232.199 465 229.199 466.1C226.199 467.3 222.899 467.8 219.199 467.8ZM219.199 455.8C220.799 455.8 222.199 455.4 223.499 454.7C224.699 454 225.699 452.7 226.399 451.1C227.099 449.4 227.499 447.3 227.499 444.6C227.499 440.6 226.699 437.7 225.199 435.9C223.599 434.1 221.699 433.2 219.299 433.2C217.699 433.2 216.199 433.6 214.999 434.4C213.699 435.2 212.799 436.4 211.999 438C211.299 439.7 210.899 441.8 210.899 444.5C210.899 448.5 211.699 451.3 213.199 453.1C214.699 454.9 216.699 455.8 219.199 455.8Z" fill="#182322"/>
<path d="M275.102 467.8C270.102 467.8 265.802 466.9 262.102 465C258.402 463.1 255.502 460.4 253.502 456.9C251.502 453.4 250.402 449.3 250.402 444.5C250.402 440.9 251.002 437.7 252.102 434.8C253.202 432 254.902 429.5 257.102 427.6C259.302 425.6 261.902 424.1 264.902 423C267.902 421.9 271.302 421.4 275.002 421.4C276.702 421.4 278.602 421.6 280.502 421.9C282.402 422.3 284.402 422.9 286.402 423.8C287.802 424.3 288.802 425.2 289.402 426.3C290.002 427.4 290.202 428.6 290.202 429.9C290.102 431.2 289.802 432.3 289.102 433.3C288.402 434.3 287.502 435 286.402 435.4C285.302 435.8 284.102 435.7 282.702 435.1C281.702 434.6 280.702 434.2 279.702 433.9C278.602 433.7 277.602 433.5 276.602 433.5C275.002 433.5 273.602 433.8 272.402 434.3C271.202 434.8 270.102 435.5 269.302 436.5C268.502 437.5 267.802 438.6 267.402 440C267.002 441.3 266.702 442.9 266.702 444.7C266.702 448.1 267.602 450.8 269.302 452.8C271.002 454.8 273.502 455.8 276.602 455.8C277.602 455.8 278.702 455.7 279.702 455.5C280.702 455.3 281.802 454.9 282.702 454.5C284.102 453.8 285.302 453.7 286.402 454.1C287.502 454.5 288.302 455.2 289.002 456.2C289.702 457.2 290.002 458.3 290.002 459.6C290.002 460.9 289.802 462.1 289.202 463.2C288.602 464.3 287.602 465.1 286.202 465.6C284.202 466.5 282.302 467.1 280.402 467.5C278.602 467.6 276.802 467.8 275.102 467.8Z" fill="#182322"/>
<path d="M321.702 467.8C316.302 467.8 311.602 466.8 307.702 464.9C303.802 463 300.802 460.3 298.702 456.8C296.602 453.3 295.602 449.2 295.602 444.6C295.602 440 296.602 436 298.602 432.5C300.602 429 303.402 426.3 306.902 424.3C310.402 422.3 314.402 421.3 318.902 421.3C322.202 421.3 325.202 421.8 327.902 422.9C330.602 424 332.902 425.5 334.802 427.5C336.702 429.5 338.102 431.9 339.202 434.7C340.202 437.5 340.702 440.7 340.702 444.2C340.702 445.3 340.402 446.2 339.702 446.8C339.002 447.4 338.002 447.7 336.602 447.7H309.002V440.1H328.902L327.602 441.3C327.602 439.1 327.302 437.3 326.702 435.9C326.102 434.5 325.202 433.4 324.002 432.8C322.802 432.1 321.402 431.8 319.602 431.8C317.702 431.8 316.102 432.2 314.702 433.1C313.302 434 312.302 435.2 311.602 436.9C310.902 438.6 310.602 440.7 310.602 443.2V443.9C310.602 448.2 311.502 451.3 313.402 453.1C315.302 454.9 318.202 455.8 322.202 455.8C323.502 455.8 325.002 455.7 326.702 455.4C328.402 455.1 330.002 454.6 331.602 454C333.202 453.4 334.502 453.3 335.602 453.7C336.702 454.1 337.602 454.7 338.302 455.6C339.002 456.5 339.302 457.6 339.402 458.8C339.502 460 339.202 461.2 338.602 462.3C338.002 463.4 336.902 464.2 335.502 464.8C333.502 465.8 331.302 466.5 328.902 467C326.502 467.5 324.102 467.8 321.702 467.8Z" fill="#182322"/>
<path d="M357.102 483.8C354.502 483.8 352.502 483.1 351.102 481.7C349.802 480.3 349.102 478.3 349.102 475.7V429.6C349.102 427 349.802 425 351.102 423.6C352.502 422.2 354.402 421.5 356.902 421.5C359.402 421.5 361.402 422.2 362.702 423.6C364.102 425 364.802 427 364.802 429.6V434.8L363.802 430.4C364.602 427.7 366.402 425.5 369.102 423.8C371.802 422.1 374.802 421.3 378.202 421.3C382.002 421.3 385.302 422.2 388.302 424.1C391.202 426 393.502 428.6 395.102 432.1C396.702 435.5 397.502 439.7 397.502 444.5C397.502 449.2 396.702 453.4 395.002 456.8C393.302 460.3 391.102 463 388.202 464.9C385.302 466.8 382.002 467.7 378.102 467.7C374.802 467.7 371.802 466.9 369.202 465.3C366.602 463.7 364.802 461.7 363.802 459.1H365.002V475.6C365.002 478.2 364.302 480.2 362.902 481.6C361.602 483.1 359.602 483.8 357.102 483.8ZM373.202 455.8C374.802 455.8 376.202 455.4 377.502 454.7C378.702 454 379.702 452.7 380.402 451.1C381.102 449.4 381.502 447.3 381.502 444.6C381.502 440.6 380.702 437.7 379.202 435.9C377.602 434.1 375.702 433.2 373.302 433.2C371.602 433.2 370.202 433.6 368.902 434.4C367.602 435.2 366.702 436.4 366.002 438C365.302 439.7 365.002 441.8 365.002 444.5C365.002 448.5 365.802 451.3 367.302 453.1C368.702 454.9 370.702 455.8 373.202 455.8Z" fill="#182322"/>
<path d="M410.101 479.3C408.001 479.3 406.301 478.7 405.101 477.5C403.901 476.3 403.301 474.5 403.301 472.1V461.8C403.301 457.1 405.701 454.7 410.401 454.7H416.201L406.701 458C408.101 456 409.201 453.9 410.001 451.8C410.801 449.7 411.401 447.3 411.701 444.6C412.101 441.8 412.201 438.4 412.201 434.3V431.2C412.201 428.4 413.001 426.2 414.501 424.7C416.101 423.2 418.301 422.4 421.201 422.4H441.601C444.501 422.4 446.701 423.2 448.201 424.7C449.701 426.2 450.501 428.4 450.501 431.2V462.1L443.001 454.7H450.701C453.001 454.7 454.801 455.3 456.101 456.5C457.301 457.7 457.901 459.5 457.901 461.9V472.2C457.901 477 455.701 479.4 451.101 479.4C448.901 479.4 447.201 478.8 446.101 477.6C445.001 476.4 444.401 474.6 444.401 472.2V466.8H416.401V472.2C416.701 476.9 414.501 479.3 410.101 479.3ZM422.701 454.7H435.801V434.5H425.901V438.7C425.901 441.6 425.601 444.5 425.101 447.4C424.601 450.3 423.801 452.8 422.701 454.7Z" fill="#182322"/>
<path d="M472.201 467.6C470.601 467.6 469.201 467.3 468.201 466.7C467.101 466.1 466.301 465.1 465.701 463.9C465.101 462.6 464.801 461.1 464.801 459.1V429.2C464.801 426.8 465.401 424.9 466.701 423.6C468.001 422.3 469.801 421.6 472.101 421.6C474.401 421.6 476.201 422.3 477.501 423.6C478.701 424.9 479.301 426.8 479.301 429.2V449.7H476.801L494.201 426.7C495.001 425.6 496.101 424.5 497.501 423.3C498.801 422.1 500.801 421.5 503.201 421.5C504.901 421.5 506.301 421.8 507.301 422.4C508.301 423 509.201 424 509.701 425.2C510.201 426.4 510.501 428 510.501 430V460C510.501 462.4 509.901 464.3 508.701 465.6C507.501 466.9 505.701 467.6 503.401 467.6C501.001 467.6 499.201 466.9 498.001 465.6C496.801 464.2 496.201 462.4 496.201 460V439.5H498.701L481.201 462.5C480.401 463.6 479.301 464.8 478.001 466C476.701 467 474.801 467.6 472.201 467.6Z" fill="#182322"/>
<path d="M556.102 467.6C553.802 467.6 552.002 467 550.702 465.7C549.402 464.4 548.702 462.6 548.702 460.2V453.4H545.602C544.602 453.4 543.602 453.7 542.802 454.4C542.002 455.1 541.102 455.9 540.402 457L535.102 464C533.702 465.7 532.202 466.8 530.602 467.3C529.002 467.8 527.402 467.8 526.002 467.3C524.502 466.8 523.302 466 522.402 464.9C521.502 463.8 521.002 462.5 520.902 461C520.802 459.5 521.402 458 522.702 456.5L524.702 453.7C525.602 452.6 526.802 451.5 528.302 450.6C529.802 449.7 531.402 449.2 533.102 449.2H536.302V450.3C530.802 450.3 526.602 449.2 523.802 446.9C521.002 444.7 519.602 441.3 519.602 436.8C519.602 433.7 520.302 431.2 521.802 429.1C523.202 427 525.302 425.4 528.002 424.2C530.702 423.1 534.002 422.5 538.002 422.5H555.802C558.302 422.5 560.202 423.2 561.602 424.5C562.902 425.8 563.602 427.7 563.602 430.3V460.3C563.602 462.7 562.902 464.5 561.602 465.8C560.102 467 558.302 467.6 556.102 467.6ZM541.202 443.2H548.702V432.5H541.202C539.002 432.5 537.302 433 536.202 433.9C535.102 434.8 534.502 436.1 534.502 437.8C534.502 439.5 535.102 440.8 536.202 441.8C537.302 442.7 539.002 443.2 541.202 443.2Z" fill="#182322"/>
<path d="M7.50079 398.8C5.20079 398.8 3.4008 398.2 2.1008 397C0.9008 395.8 0.300781 394 0.300781 391.6V376.9C0.300781 372 2.80081 369.5 7.70081 369.5H13.0008L4.40079 371.8C7.70079 369 10.2008 364.6 11.8008 358.5C13.4008 352.5 14.2008 344.8 14.2008 335.6V327.4C14.2008 324.6 14.9008 322.4 16.4008 321C17.9008 319.5 20.0008 318.8 22.8008 318.8H53.8008C56.6008 318.8 58.7008 319.5 60.1008 321C61.5008 322.5 62.3008 324.6 62.3008 327.4V375.5L56.4008 369.5H64.0008C66.4008 369.5 68.2008 370.1 69.4008 371.3C70.6008 372.5 71.2008 374.4 71.2008 376.8V391.5C71.2008 396.4 68.8008 398.8 64.1008 398.8C61.8008 398.8 60.1008 398.2 58.8008 397C57.6008 395.8 57.0008 394 57.0008 391.6V382.3H14.4008V391.6C14.6008 396.4 12.3008 398.8 7.50079 398.8ZM23.2008 369.5H46.0008V331.6H29.5008V337.5C29.5008 344.9 29.0008 351.2 27.9008 356.5C26.9008 361.7 25.3008 366.1 23.2008 369.5Z" fill="#182322"/>
<path d="M102.901 383.4C97.5008 383.4 92.8008 382.4 88.9008 380.5C85.0008 378.6 82.0008 375.9 79.9008 372.4C77.8008 368.9 76.8008 364.8 76.8008 360.2C76.8008 355.6 77.8008 351.6 79.8008 348.1C81.8008 344.6 84.6008 341.9 88.1008 339.9C91.6008 337.9 95.6008 336.9 100.101 336.9C103.401 336.9 106.401 337.4 109.101 338.5C111.801 339.6 114.101 341.1 116.001 343.1C117.901 345.1 119.301 347.5 120.401 350.3C121.401 353.1 121.901 356.3 121.901 359.8C121.901 360.9 121.601 361.8 120.901 362.4C120.201 363 119.201 363.3 117.801 363.3H90.2008V355.6H110.001L108.601 356.8C108.601 354.6 108.301 352.8 107.701 351.4C107.101 350 106.201 348.9 105.001 348.2C103.801 347.5 102.401 347.2 100.601 347.2C98.7008 347.2 97.1008 347.6 95.7008 348.5C94.3008 349.4 93.3008 350.6 92.6008 352.3C91.9008 354 91.6008 356.1 91.6008 358.6V359.3C91.6008 363.6 92.5008 366.7 94.4008 368.5C96.3008 370.3 99.2008 371.2 103.201 371.2C104.501 371.2 106.001 371.1 107.701 370.7C109.401 370.4 111.001 369.9 112.601 369.3C114.201 368.7 115.501 368.6 116.701 369C117.801 369.4 118.701 370 119.401 370.9C120.001 371.8 120.401 372.9 120.501 374.1C120.601 375.3 120.301 376.5 119.701 377.6C119.101 378.7 118.001 379.5 116.601 380.1C114.601 381.1 112.401 381.8 110.001 382.3C107.701 383.1 105.301 383.4 102.901 383.4Z" fill="#182322"/>
<path d="M167.601 383.2C165.001 383.2 163.001 382.5 161.601 381.1C160.201 379.7 159.601 377.7 159.601 375.1V350.3H150.301V355C150.301 358.5 150.001 361.7 149.401 364.7C148.801 367.7 148.001 370.3 146.901 372.6C145.801 374.9 144.401 376.8 142.701 378.5C141.001 380.2 139.001 381.5 136.601 382.4C134.801 383.1 133.201 383.3 131.701 383C130.201 382.7 129.001 382 128.101 380.9C127.101 379.9 126.501 378.7 126.301 377.3C126.101 376 126.201 374.6 126.801 373.3C127.401 372 128.501 370.8 130.101 369.7C131.201 369 132.201 368.2 132.901 367.2C133.601 366.2 134.201 365 134.601 363.7C135.001 362.4 135.301 361 135.501 359.5C135.601 358 135.701 356.3 135.701 354.5V346.8C135.701 344 136.501 341.8 138.001 340.3C139.501 338.8 141.701 338 144.601 338H166.701C169.601 338 171.801 338.8 173.301 340.3C174.801 341.8 175.601 344 175.601 346.8V375.1C175.601 377.7 174.901 379.7 173.501 381.1C172.201 382.5 170.201 383.2 167.601 383.2Z" fill="#182322"/>
<path d="M201.699 383.4C198.299 383.4 195.199 382.8 192.599 381.5C189.999 380.2 187.899 378.5 186.399 376.3C184.899 374.1 184.199 371.6 184.199 368.8C184.199 365.6 184.999 363 186.699 361.1C188.399 359.2 191.099 357.9 194.799 357.1C198.499 356.3 203.499 355.9 209.699 355.9H214.599V363.4H209.699C207.399 363.4 205.399 363.6 203.899 363.9C202.399 364.3 201.299 364.8 200.599 365.4C199.899 366.1 199.499 367 199.499 368.1C199.499 369.5 199.999 370.6 200.899 371.5C201.899 372.4 203.299 372.8 205.199 372.8C206.599 372.8 207.899 372.5 209.099 371.8C210.299 371.1 211.199 370.2 211.899 369.1C212.599 367.9 212.999 366.6 212.999 365V354.6C212.999 352.4 212.399 350.8 211.299 350C210.199 349.1 208.299 348.7 205.699 348.7C204.199 348.7 202.599 348.9 200.799 349.2C198.999 349.5 196.999 350.1 194.699 351C193.099 351.6 191.699 351.7 190.499 351.3C189.299 350.9 188.499 350.2 187.899 349.2C187.299 348.2 186.999 347.1 186.999 345.9C186.999 344.7 187.399 343.5 188.099 342.4C188.799 341.3 189.999 340.4 191.599 339.9C194.499 338.9 197.099 338.2 199.599 337.7C202.099 337.3 204.299 337.1 206.299 337.1C211.199 337.1 215.299 337.8 218.499 339.3C221.699 340.7 224.099 342.9 225.699 345.8C227.299 348.7 228.099 352.4 228.099 357V375.3C228.099 377.9 227.499 379.9 226.199 381.3C224.899 382.7 223.099 383.4 220.799 383.4C218.299 383.4 216.499 382.7 215.199 381.3C213.899 379.9 213.299 377.9 213.299 375.3V372.9L213.799 374.2C213.499 376.1 212.799 377.7 211.699 379.1C210.599 380.5 209.199 381.6 207.499 382.4C205.899 383 203.999 383.4 201.699 383.4Z" fill="#182322"/>
</svg>
