<svg width="21" height="20" viewBox="0 0 21 20" fill="none" xmlns="http://www.w3.org/2000/svg">
<path d="M20.4064 6.67969C20.3673 5.11328 19.758 3.63281 18.6916 2.51172C17.6134 1.37891 16.1798 0.726562 14.6564 0.679687C13.0587 0.625 11.5392 1.23438 10.4064 2.33984C9.31656 1.28125 7.86734 0.671875 6.3439 0.671875C6.33609 0.671875 6.32828 0.671875 6.31656 0.671875C4.77359 0.679688 3.31656 1.30078 2.20328 2.42578C1.05094 3.59766 0.394686 5.22266 0.406404 6.88672C0.418123 8.50781 1.0314 10.0312 2.13687 11.1836L9.70328 19.0273C9.89469 19.2266 10.1486 19.3242 10.4064 19.3242C10.6486 19.3242 10.8947 19.2344 11.0861 19.0508C11.4728 18.6758 11.4845 18.0586 11.1095 17.668L3.54312 9.83203C2.78922 9.04297 2.36734 7.99219 2.35953 6.87109C2.35172 5.72266 2.80094 4.60547 3.5939 3.80078C4.33609 3.04688 5.30875 2.62891 6.32828 2.625H6.3439C7.63297 2.625 8.84781 3.28906 9.5939 4.39844C9.77359 4.66797 10.0783 4.82812 10.4025 4.82812C10.7267 4.82812 11.0314 4.66797 11.2111 4.39844C11.9884 3.24609 13.2502 2.58203 14.5861 2.625C15.5939 2.65625 16.547 3.09375 17.2697 3.85156C18.0041 4.62109 18.422 5.64062 18.4455 6.71875C18.4728 7.87109 18.0666 8.95703 17.3048 9.78125C17.3048 9.78516 17.3009 9.78516 17.3009 9.78906L12.3791 14.9023C12.0041 15.2891 12.0158 15.9102 12.4064 16.2812C12.7931 16.6562 13.4142 16.6445 13.7853 16.2539L18.7228 11.1211L18.7541 11.0898C19.8595 9.90234 20.4455 8.33594 20.4064 6.67969Z" fill="white"/>
</svg>
