<svg width="21" height="20" viewBox="0 0 21 20" fill="none" xmlns="http://www.w3.org/2000/svg">
<path d="M20.9064 6.67969C20.8673 5.11328 20.258 3.63281 19.1916 2.51172C18.1134 1.37891 16.6798 0.726562 15.1564 0.679687C13.5587 0.625 12.0392 1.23438 10.9064 2.33984C9.81656 1.28125 8.36734 0.671875 6.8439 0.671875C6.83609 0.671875 6.82828 0.671875 6.81656 0.671875C5.27359 0.679688 3.81656 1.30078 2.70328 2.42578C1.55094 3.59766 0.894686 5.22266 0.906404 6.88672C0.918123 8.50781 1.5314 10.0312 2.63687 11.1836L10.2033 19.0273C10.3947 19.2266 10.6486 19.3242 10.9064 19.3242C11.1486 19.3242 11.3947 19.2344 11.5861 19.0508C11.9728 18.6758 11.9845 18.0586 11.6095 17.668L4.04312 9.83203C3.28922 9.04297 2.86734 7.99219 2.85953 6.87109C2.85172 5.72266 3.30094 4.60547 4.0939 3.80078C4.83609 3.04688 5.80875 2.62891 6.82828 2.625H6.8439C8.13297 2.625 9.34781 3.28906 10.0939 4.39844C10.2736 4.66797 10.5783 4.82812 10.9025 4.82812C11.2267 4.82812 11.5314 4.66797 11.7111 4.39844C12.4884 3.24609 13.7502 2.58203 15.0861 2.625C16.0939 2.65625 17.047 3.09375 17.7697 3.85156C18.5041 4.62109 18.922 5.64062 18.9455 6.71875C18.9728 7.87109 18.5666 8.95703 17.8048 9.78125C17.8048 9.78516 17.8009 9.78516 17.8009 9.78906L12.8791 14.9023C12.5041 15.2891 12.5158 15.9102 12.9064 16.2812C13.2931 16.6562 13.9142 16.6445 14.2853 16.2539L19.2228 11.1211L19.2541 11.0898C20.3595 9.90234 20.9455 8.33594 20.9064 6.67969Z" fill="#ED7777"/>
</svg>
