<svg width="16" height="16" viewBox="0 0 16 16" fill="none" xmlns="http://www.w3.org/2000/svg">
<g clip-path="url(#clip0_226_1733)">
<path d="M10.1249 8.62256L8.86862 9.88309C8.35918 10.3943 7.46281 10.4053 6.94235 9.88309L5.68602 8.62256L1.17383 13.1494C1.34179 13.2271 1.52697 13.2734 1.72385 13.2734H14.0871C14.284 13.2734 14.4691 13.2271 14.637 13.1494L10.1249 8.62256Z" fill="#2B2A29"/>
<path d="M14.0871 2.72656H1.72379C1.52691 2.72656 1.34173 2.77291 1.17383 2.85058L5.99542 7.68816C5.99574 7.68849 5.99612 7.68855 5.99645 7.68887C5.99677 7.68919 5.99683 7.68963 5.99683 7.68963L7.56459 9.26258C7.73111 9.4291 8.0798 9.4291 8.24633 9.26258L9.81377 7.68989C9.81377 7.68989 9.81415 7.68919 9.81447 7.68887C9.81447 7.68887 9.81518 7.68849 9.8155 7.68816L14.637 2.85055C14.4691 2.77285 14.2839 2.72656 14.0871 2.72656Z" fill="#2B2A29"/>
<path d="M0.546465 3.46509C0.45957 3.64081 0.40625 3.83587 0.40625 4.04481V11.955C0.40625 12.1639 0.459512 12.359 0.546436 12.5347L5.06644 8.00004L0.546465 3.46509Z" fill="#2B2A29"/>
<path d="M15.266 3.46509L10.7461 8.0001L15.266 12.5348C15.3529 12.3591 15.4063 12.164 15.4063 11.955V4.04487C15.4063 3.83587 15.3529 3.64081 15.266 3.46509Z" fill="#2B2A29"/>
</g>
<defs>
<clipPath id="clip0_226_1733">
<rect width="15" height="15" fill="white" transform="translate(0.40625 0.5)"/>
</clipPath>
</defs>
</svg>
