<svg width="16" height="15" viewBox="0 0 16 15" fill="none" xmlns="http://www.w3.org/2000/svg">
<path d="M15.4054 4.75513L10.6914 9.46909L15.0838 13.8614C15.2868 13.5181 15.4054 13.1193 15.4054 12.6925V4.75513H15.4054Z" fill="#2B2A29"/>
<path d="M13.8803 14.2877L9.87733 10.2847L5.16211 14.9999H13.0994C13.5262 14.9999 13.9249 14.8813 14.2682 14.6784L13.9147 14.3251C13.9025 14.313 13.891 14.3006 13.8803 14.2877Z" fill="#2B2A29"/>
<path d="M13.0985 0H2.71392C1.43892 0 0.40625 1.03558 0.40625 2.30767V12.6923C0.40625 13.9644 1.43895 14.9999 2.71392 14.9999H3.53028L15.4062 3.124V2.30767C15.4062 1.03558 14.3706 0 13.0985 0ZM6.87066 9.20189C6.76105 9.34327 6.59375 9.42689 6.41489 9.42689C6.23603 9.42689 6.06586 9.34324 5.95622 9.20189C5.57545 8.70574 3.6716 6.16442 3.6716 4.83747C3.6716 3.32595 4.90043 2.09708 6.41486 2.09708C7.92639 2.09708 9.1581 3.32592 9.1581 4.83747C9.15815 6.16442 7.2543 8.70574 6.87066 9.20189Z" fill="#2B2A29"/>
<path d="M8.00499 4.83774C8.00499 5.4089 7.18001 6.79063 6.4156 7.87525C5.64828 6.79063 4.82617 5.40893 4.82617 4.83774C4.82617 3.96372 5.53867 3.25122 6.4156 3.25122C7.2925 3.25122 8.00499 3.96372 8.00499 4.83774Z" fill="#2B2A29"/>
</svg>
