<svg width="36" height="36" viewBox="0 0 36 36" fill="none" xmlns="http://www.w3.org/2000/svg">
<g clip-path="url(#clip0_226_1718)">
<path d="M17.9236 15.0038C19.5947 14.9978 20.9256 13.6554 20.9195 11.9808C20.9134 10.3054 19.5797 8.97238 17.9079 8.97095C16.2222 8.96916 14.8759 10.3269 14.8888 12.0173C14.9013 13.6858 16.2472 15.0099 17.9236 15.0038Z" fill="#ED7777"/>
<path d="M17.9062 0.5C8.24124 0.5 0.40625 8.33535 0.40625 18C0.40625 27.6647 8.24124 35.5 17.9062 35.5C27.5713 35.5 35.4062 27.6647 35.4062 18C35.4062 8.33535 27.5713 0.5 17.9062 0.5ZM17.9313 5.82179C21.34 5.8311 24.0759 8.61928 24.0584 12.0656C24.0412 15.4324 21.2605 18.1611 17.8576 18.1497C14.4893 18.1382 11.7269 15.3457 11.747 11.9721C11.7659 8.56164 14.5298 5.81248 17.9313 5.82179ZM24.8354 20.5716C24.0816 21.3453 23.1743 21.9053 22.1668 22.296C21.2143 22.6651 20.1706 22.8509 19.1372 22.9748C19.2937 23.1446 19.3671 23.228 19.4645 23.3254C20.8667 24.735 22.2756 26.1375 23.6731 27.5512C24.1493 28.0331 24.2485 28.6303 23.9864 29.19C23.7003 29.8023 23.0583 30.2047 22.4285 30.1614C22.0296 30.1338 21.7185 29.9358 21.4424 29.6576C20.384 28.5927 19.3055 27.5469 18.2693 26.4619C17.9668 26.1461 17.8221 26.2063 17.5554 26.4806C16.4909 27.5769 15.4088 28.6558 14.3207 29.7289C13.8319 30.2108 13.2504 30.2982 12.6833 30.0225C12.0807 29.731 11.6976 29.1155 11.7269 28.4964C11.7477 28.0789 11.9532 27.7588 12.2404 27.4731C13.6286 26.0878 15.0124 24.6982 16.3967 23.3096C16.4887 23.2176 16.5739 23.1198 16.7075 22.9766C14.8194 22.7793 13.1169 22.3146 11.6592 21.1749C11.4781 21.0331 11.2915 20.8963 11.1268 20.7373C10.4884 20.1247 10.4243 19.4226 10.9288 18.7C11.361 18.0813 12.0857 17.9159 12.8394 18.2714C12.9855 18.3398 13.1244 18.4264 13.2576 18.5181C15.9738 20.3847 19.7055 20.4359 22.4324 18.6015C22.7024 18.3953 22.9914 18.2256 23.3261 18.14C23.9764 17.9724 24.5836 18.212 24.9324 18.7813C25.3316 19.4319 25.327 20.0663 24.8354 20.5716Z" fill="#ED7777"/>
</g>
<defs>
<clipPath id="clip0_226_1718">
<rect width="35" height="35" fill="white" transform="translate(0.40625 0.5)"/>
</clipPath>
</defs>
</svg>
