<svg width="16" height="15" viewBox="0 0 16 15" fill="none" xmlns="http://www.w3.org/2000/svg">
<g clip-path="url(#clip0_226_1728)">
<path d="M0.523438 1.64062V13.3594C0.523438 14.2031 1.20312 14.8828 2.04688 14.8828H3.21875C4.0625 14.8828 4.74219 14.2031 4.74219 13.3594V1.64062C4.74219 0.796875 4.0625 0.117188 3.21875 0.117188H2.04688C1.20312 0.117188 0.523438 0.796875 0.523438 1.64062Z" fill="#2B2A29"/>
<path d="M13.7656 1.28906H5.91406C5.71484 1.28906 5.5625 1.44141 5.5625 1.64062V14.5312C5.5625 14.7305 5.71484 14.8828 5.91406 14.8828H13.7656C14.6094 14.8828 15.2891 14.2031 15.2891 13.3594V2.8125C15.2891 1.96875 14.6094 1.28906 13.7656 1.28906ZM7.55469 13.125C7.22656 13.125 6.96875 12.8672 6.96875 12.5391C6.96875 12.2109 7.22656 11.9531 7.55469 11.9531C7.88281 11.9531 8.14062 12.2109 8.14062 12.5391C8.14062 12.8672 7.88281 13.125 7.55469 13.125ZM7.55469 10.5469C7.22656 10.5469 6.96875 10.2891 6.96875 9.96094C6.96875 9.63281 7.22656 9.375 7.55469 9.375C7.88281 9.375 8.14062 9.63281 8.14062 9.96094C8.14062 10.2891 7.88281 10.5469 7.55469 10.5469ZM7.55469 7.96875C7.22656 7.96875 6.96875 7.71094 6.96875 7.38281C6.96875 7.05469 7.22656 6.79688 7.55469 6.79688C7.88281 6.79688 8.14062 7.05469 8.14062 7.38281C8.14062 7.71094 7.88281 7.96875 7.55469 7.96875ZM10.3672 13.125C10.0391 13.125 9.78125 12.8672 9.78125 12.5391C9.78125 12.2109 10.0391 11.9531 10.3672 11.9531C10.6953 11.9531 10.9531 12.2109 10.9531 12.5391C10.9531 12.8672 10.6953 13.125 10.3672 13.125ZM10.3672 10.5469C10.0391 10.5469 9.78125 10.2891 9.78125 9.96094C9.78125 9.63281 10.0391 9.375 10.3672 9.375C10.6953 9.375 10.9531 9.63281 10.9531 9.96094C10.9531 10.2891 10.6953 10.5469 10.3672 10.5469ZM10.3672 7.96875C10.0391 7.96875 9.78125 7.71094 9.78125 7.38281C9.78125 7.05469 10.0391 6.79688 10.3672 6.79688C10.6953 6.79688 10.9531 7.05469 10.9531 7.38281C10.9531 7.71094 10.6953 7.96875 10.3672 7.96875ZM12.9453 13.125C12.6172 13.125 12.3594 12.8672 12.3594 12.5391C12.3594 12.2109 12.6172 11.9531 12.9453 11.9531C13.2734 11.9531 13.5312 12.2109 13.5312 12.5391C13.5312 12.8672 13.2734 13.125 12.9453 13.125ZM12.9453 10.5469C12.6172 10.5469 12.3594 10.2891 12.3594 9.96094C12.3594 9.63281 12.6172 9.375 12.9453 9.375C13.2734 9.375 13.5312 9.63281 13.5312 9.96094C13.5312 10.2891 13.2734 10.5469 12.9453 10.5469ZM12.9453 7.96875C12.6172 7.96875 12.3594 7.71094 12.3594 7.38281C12.3594 7.05469 12.6172 6.79688 12.9453 6.79688C13.2734 6.79688 13.5312 7.05469 13.5312 7.38281C13.5312 7.71094 13.2734 7.96875 12.9453 7.96875ZM12.3594 5.39062H8.14062C7.49609 5.39062 6.96875 4.86328 6.96875 4.21875C6.96875 3.57422 7.49609 3.04688 8.14062 3.04688H12.3594C13.0039 3.04688 13.5312 3.57422 13.5312 4.21875C13.5312 4.86328 13.0039 5.39062 12.3594 5.39062Z" fill="#2B2A29"/>
</g>
<defs>
<clipPath id="clip0_226_1728">
<rect width="15" height="15" fill="white" transform="translate(0.40625)"/>
</clipPath>
</defs>
</svg>
