<svg width="37" height="36" viewBox="0 0 37 36" fill="none" xmlns="http://www.w3.org/2000/svg">
<g clip-path="url(#clip0_226_1714)">
<path fill-rule="evenodd" clip-rule="evenodd" d="M35.4062 18C35.4062 27.665 27.5712 35.5 17.9062 35.5C8.24127 35.5 0.40625 27.665 0.40625 18C0.40625 8.33502 8.24127 0.5 17.9062 0.5C27.5712 0.5 35.4062 8.33502 35.4062 18ZM24.7391 10.2172C25.5448 9.86349 26.4063 10.5787 26.2662 11.4849L24.1908 24.8919C24.0647 25.7069 23.1971 26.1317 22.5226 25.7088L16.5095 21.9381C15.8828 21.5451 15.7794 20.6349 16.3004 20.0977L21.6711 14.5604C21.8634 14.3623 21.6181 14.0424 21.3931 14.1978L13.9319 19.3526C13.3803 19.7336 12.6964 19.8377 12.0647 19.6365L8.7554 18.5826C8.15615 18.3918 8.11388 17.5166 8.69167 17.2629L24.7391 10.2172Z" fill="#ED7777"/>
</g>
<defs>
<clipPath id="clip0_226_1714">
<rect width="36" height="36" fill="white" transform="translate(0.40625)"/>
</clipPath>
</defs>
</svg>
