<svg width="36" height="36" viewBox="0 0 36 36" fill="none" xmlns="http://www.w3.org/2000/svg">
<path d="M17.9062 0.5C8.2416 0.5 0.40625 8.33499 0.40625 18C0.40625 27.665 8.2416 35.5 17.9062 35.5C27.5709 35.5 35.4062 27.665 35.4062 18C35.4062 8.33499 27.5709 0.5 17.9062 0.5ZM26.7832 19.8927C27.5988 20.6894 28.4618 21.4391 29.194 22.3182C29.5184 22.707 29.8242 23.1091 30.0569 23.5613C30.3892 24.2062 30.0891 24.9134 29.5119 24.9517L25.9267 24.9509C25.0008 25.0276 24.2639 24.6541 23.6427 24.0211C23.1468 23.5166 22.6867 22.9777 22.209 22.456C22.0139 22.2419 21.8083 22.0403 21.5634 21.8817C21.0747 21.5637 20.65 21.6611 20.37 22.1717C20.0847 22.6913 20.0195 23.267 19.9923 23.8453C19.9533 24.6906 19.6983 24.9116 18.8501 24.9513C17.0376 25.0362 15.3179 24.7612 13.7195 23.8474C12.3095 23.0414 11.2181 21.9039 10.2671 20.616C8.41525 18.1053 6.99699 15.3497 5.72267 12.5149C5.43587 11.8765 5.64569 11.5349 6.34998 11.5217C7.52011 11.4991 8.69024 11.502 9.86037 11.5206C10.3366 11.5281 10.6517 11.8006 10.8346 12.25C11.467 13.8057 12.2422 15.2859 13.2136 16.6587C13.4724 17.0243 13.7367 17.3888 14.113 17.647C14.5283 17.932 14.8449 17.8378 15.0407 17.3741C15.166 17.0794 15.2201 16.7643 15.2473 16.4485C15.3404 15.3669 15.3515 14.2855 15.1904 13.2081C15.0901 12.5339 14.711 12.0985 14.0389 11.971C13.6966 11.9062 13.7467 11.7795 13.9132 11.584C14.2022 11.246 14.4728 11.0369 15.0139 11.0369L19.0646 11.0362C19.703 11.1615 19.8462 11.4479 19.9328 12.091L19.9364 16.5925C19.9289 16.8413 20.0614 17.5789 20.5082 17.7418C20.8663 17.86 21.1026 17.5728 21.3167 17.3462C22.2881 16.3153 22.9803 15.0987 23.6001 13.8394C23.8736 13.284 24.1096 12.7094 24.3387 12.1336C24.5092 11.7079 24.7741 11.4984 25.2546 11.5056L29.1553 11.5102C29.2702 11.5102 29.387 11.5113 29.5008 11.531C30.1582 11.6434 30.3383 11.9263 30.1349 12.5676C29.8148 13.5751 29.1929 14.4144 28.5849 15.2559C27.9333 16.1567 27.2383 17.0261 26.5931 17.9309C26.0001 18.758 26.047 19.1744 26.7832 19.8927Z" fill="#ED7777"/>
</svg>
